<svg xmlns="http://www.w3.org/2000/svg" version="1.1" xmlns:xlink="http://www.w3.org/1999/xlink" width="1000" height="1000"><metadata><rdf:RDF xmlns:rdf="http://www.w3.org/1999/02/22-rdf-syntax-ns#" xmlns:dc="http://purl.org/dc/elements/1.1/"><rdf:Description><dc:creator>RealFaviconGenerator</dc:creator><dc:source>https://realfavicongenerator.net</dc:source></rdf:Description></rdf:RDF></metadata><g clip-path="url(#SvgjsClipPath1009)"><rect width="1000" height="1000" fill="#ffffff"></rect><g transform="matrix(2.0833333333333335,0,0,2.0833333333333335,150,150)"><svg xmlns="http://www.w3.org/2000/svg" xmlns:xlink="http://www.w3.org/1999/xlink" viewBox="0 0 336 336" width="336" height="336"><defs><style>.cls-1{fill:#1b2217;}.cls-2{fill:url(#linear-gradient);}.cls-3{fill:#007156;}.cls-4{fill:url(#linear-gradient-2);}.cls-5{fill:url(#linear-gradient-3);}.cls-6{fill:url(#linear-gradient-4);}.cls-7{fill:url(#linear-gradient-5);}.cls-8{fill:url(#linear-gradient-6);}.cls-9{fill:url(#linear-gradient-7);}.cls-10{fill:url(#linear-gradient-8);}.cls-11{fill:url(#linear-gradient-9);}.cls-12{fill:url(#linear-gradient-10);}.cls-13{fill:url(#linear-gradient-11);}.cls-14{fill:url(#linear-gradient-12);}.cls-15{fill:url(#linear-gradient-13);}.cls-16{fill:url(#linear-gradient-14);}.cls-17{fill:url(#linear-gradient-15);}.cls-18{fill:url(#linear-gradient-16);}.cls-19{fill:url(#linear-gradient-17);}</style><linearGradient id="linear-gradient" x1="70.28" y1="89.2" x2="85.06" y2="89.2" gradientTransform="matrix(1, 0, 0, -1, 0, 341.62)" gradientUnits="userSpaceOnUse"><stop offset="0" stop-color="#007156"></stop><stop offset="1" stop-color="#1b2217"></stop></linearGradient><linearGradient id="linear-gradient-2" x1="84.14" y1="58.97" x2="98.92" y2="58.97" xlink:href="#linear-gradient"></linearGradient><linearGradient id="linear-gradient-3" x1="96.12" y1="28.75" x2="110.9" y2="28.75" xlink:href="#linear-gradient"></linearGradient><linearGradient id="linear-gradient-4" x1="-978.18" y1="1091.05" x2="-798.44" y2="1091.05" gradientTransform="translate(1064.53 -973.22)" xlink:href="#linear-gradient"></linearGradient><linearGradient id="linear-gradient-5" x1="-978.18" y1="1130.03" x2="-798.44" y2="1130.03" gradientTransform="translate(1064.53 -973.22)" xlink:href="#linear-gradient"></linearGradient><linearGradient id="linear-gradient-6" x1="-978.18" y1="1111.43" x2="-798.44" y2="1111.43" gradientTransform="translate(1064.53 -973.22)" xlink:href="#linear-gradient"></linearGradient><linearGradient id="linear-gradient-7" x1="-978.18" y1="1188.53" x2="-798.44" y2="1188.53" gradientTransform="translate(1064.53 -973.22)" xlink:href="#linear-gradient"></linearGradient><linearGradient id="linear-gradient-8" x1="-978.18" y1="1099.96" x2="-798.44" y2="1099.96" gradientTransform="translate(1064.53 -973.22)" xlink:href="#linear-gradient"></linearGradient><linearGradient id="linear-gradient-9" x1="-978.18" y1="1104.97" x2="-798.44" y2="1104.97" gradientTransform="translate(1064.53 -973.22)" xlink:href="#linear-gradient"></linearGradient><linearGradient id="linear-gradient-10" x1="-978.18" y1="1119.53" x2="-798.44" y2="1119.53" gradientTransform="translate(1064.53 -973.22)" xlink:href="#linear-gradient"></linearGradient><linearGradient id="linear-gradient-11" x1="-978.18" y1="1128.66" x2="-798.44" y2="1128.66" gradientTransform="translate(1064.53 -973.22)" xlink:href="#linear-gradient"></linearGradient><linearGradient id="linear-gradient-12" x1="-978.18" y1="1162.61" x2="-798.44" y2="1162.61" gradientTransform="translate(1064.53 -973.22)" xlink:href="#linear-gradient"></linearGradient><linearGradient id="linear-gradient-13" x1="-978.18" y1="1140.27" x2="-798.44" y2="1140.27" gradientTransform="translate(1064.53 -973.22)" xlink:href="#linear-gradient"></linearGradient><linearGradient id="linear-gradient-14" x1="-978.18" y1="1185.61" x2="-798.44" y2="1185.61" gradientTransform="translate(1064.53 -973.22)" xlink:href="#linear-gradient"></linearGradient><linearGradient id="linear-gradient-15" x1="-978.18" y1="1200" x2="-798.44" y2="1200" gradientTransform="translate(1064.53 -973.22)" xlink:href="#linear-gradient"></linearGradient><linearGradient id="linear-gradient-16" x1="-978.18" y1="1208.74" x2="-798.44" y2="1208.74" gradientTransform="translate(1064.53 -973.22)" xlink:href="#linear-gradient"></linearGradient><linearGradient id="linear-gradient-17" x1="-978.18" y1="1210.57" x2="-798.44" y2="1210.57" gradientTransform="translate(1064.53 -973.22)" xlink:href="#linear-gradient"></linearGradient><clipPath id="SvgjsClipPath1009"><rect width="1000" height="1000" x="0" y="0" rx="350" ry="350"></rect></clipPath></defs><g id="Layer_2" data-name="Layer 2"><g id="Layer_1-2" data-name="Layer 1"><path class="cls-1" d="M53.6,245H7.39A7.39,7.39,0,0,0,0,252.42H0a7.39,7.39,0,0,0,7.38,7.4H53.6a7.4,7.4,0,0,0,7.4-7.4h0A7.39,7.39,0,0,0,53.61,245Z"></path><path class="cls-1" d="M65.93,275.25H7.39A7.39,7.39,0,0,0,0,282.64H0A7.39,7.39,0,0,0,7.38,290H65.93a7.39,7.39,0,0,0,7.39-7.39h0A7.39,7.39,0,0,0,65.93,275.25Z"></path><path class="cls-1" d="M78.25,305.47H7.39A7.39,7.39,0,0,0,0,312.86H0a7.39,7.39,0,0,0,7.38,7.4H78.25a7.39,7.39,0,0,0,7.39-7.39h0a7.39,7.39,0,0,0-7.39-7.39Z"></path><circle class="cls-2" cx="77.67" cy="252.42" r="7.39"></circle><path class="cls-3" d="M336,168A168,168,0,0,0,168,0h0A168.07,168.07,0,0,0,9.47,223.69H38.32A141.18,141.18,0,0,1,168,26.89h0A141.1,141.1,0,0,1,309.1,168h0a140.42,140.42,0,0,1-20.57,73.47l25.18,10.3A167.29,167.29,0,0,0,336,168Z"></path><path class="cls-1" d="M288.53,241.47A141,141,0,0,1,168,309.1,142.58,142.58,0,0,1,143.77,307v27.23a168.12,168.12,0,0,0,169.89-82.48Z"></path><circle class="cls-4" cx="91.53" cy="282.65" r="7.39"></circle><circle class="cls-5" cx="103.51" cy="312.87" r="7.39"></circle><path id="SY-HA" class="cls-6" d="M252.47,111.7l-.46.16-1,.86-3.27.85L240.1,115l-.25.14-.27.27-2.94,5.21-.07,3.08-.68,5.69-.24,1.25L239,137.9l.36,6.77-1.65,2.6h0l-3.44-.46h-3.68l-2.82-.3-2.19-.67-1.55-.32-1.86-1-.5-.7-.73-.5-21.29-21L198.56,121l-.58-1.19-1-1.66-.42-1.08h0l-.07-.57-.21-.38-.76-.65-.52-.3-2.07-.76-1.24-.59-1.5.34-.58-.09-.49-.31-1.58-2.06-.23-.92-.48-1-.1-.47h0l.36-.15.39.07,2.12-.34,1.37-.39,1.84-.21,1.56-.6,2.27-.19.93-.2,1.31-.72,2-.72,1.42-.85,1-.41,1-.82,1.23-.38,1.29-.23.73-.3.82-.52.59-.56.49-.21,1.28-.86,1.62-.77.89-.82.51-.32,2.91-.6,1-.49.53-.43,2-.82.89-.65,1.21-.27L223,95h1.1l.31.35.44.09,1-.59.94-.1.78.09,1.36.42,3.07.57,1.49.1.93.43.2.41.18.12h.49l.93-.49h6.18l1.55-.19,2.67-.91h1.91l.81-.13,5.83-1.42,1.11-.6,1.11-.38,1.31-.81.44-.76.45-.47,1.48-1.11.6-1.11.23-.13.2.06v.33l-.38.79.05.22.71-.1.77.32.52-.33.33.66.37.15.17.39.6.29.21.3-.06.57-.41.38-.13.46.05.37.69,1.61v1.07l.1.2.4.24.1.5-3.65,3.67-1.94,2.26-1.14,1.1-5.28,6.27-.93.81Z"></path><path id="SY-DY" class="cls-7" d="M234.73,163.66l.18,3.75V170l.22,2.45-2.6,3.94-2.86,6.9-.43.41-.13.64-11,5.94L207,196.55h0l-5.15-7.66L186.53,167l.28-2.61-2.24-4.7-1.8-1.55-1.38-.93h0l11.71-17.11-.47-.1-.75-.52h-.35l5-22.39h0l.42,1.08,1.05,1.66.58,1.19,1.06,1.35,21.29,21,.73.5.5.7,1.86,1,1.55.32,2.19.67,2.82.3h3.68l3.44.46h0l-1.36,2.15-.21,3.33-.88,3.26-.46,2.67-.19,2.36Z"></path><path id="SY-ID" class="cls-8" d="M126.85,147.27l-.59.28-.22.78-.52,1.09-.28.35-.35.24-.87.27-.21.25-.27.87-.44.67v.54l.28.19h.38l.59-.81.33.07.19.53v1.47l-.06.08-.47-.19-.2.08-.31.3-.3.51-.3.13-1.55.06-.44-.21-.19-1.46.31-.66.06-.42-.09-.48-.3-.43h-.13l-.4.69-.63.6-.33.79-.19.1h-.67l-.31.14-.23-.37-.48-.3-.23-.5-1-.82-2.34.48-.68.35-1.15.08-.86-.08-1.78-.5h-1.09l-.26-.2-.32-.71-.82-.42-.72.47-.71.14-.3-.31-.29-1.13-.45-.86.28-.47-.16-.93,0-.56-.2-.52v-.39l.61-3.22V142l-.21-.1h-1.37l-.2-.12-.3-.85-.4-.09-.57.31h-.51l-.52-.27-.18-.34h0l.79-.5.14-.49-.07-.22-.46-.15h-1l-1.85.36-.3-.17-.08-.21.12-.47-.15-.72h0l.18.45.38.15.38-.66.16-1.62-.22-.57.18-.56.68-1.09.43-.29.42-.11.51.06.42.24.64-.09.09-.11-.31-.65.09-.38.52-.41.73.39.65-.08.27-.21.1-.29v-.54l.39-.66-.17-.74.24-.51-.32-.52-.13-.64.29-.79-.41-.89.33-.64.32-.1.06-.27-.15-.78.16-.1.86.49.6.1.36.22.29-.12.37-1,.38.15.35-.27h.54l.4.33.71-.14.68.49h.49l.36-.38h.92l.7-.5.14-.36-.36-.55.21-.68-.15-.16-.64-.18-.06-.4h0l.78-.15.76.13.28-.17.35-.43h.37l.27.32.15.85.72.54.59.91.34.29.11.46-.21.44L115,127l-1,.77-.22.41.13.32.48.43v.52l.15.15.75.51,1.65.63.88.54.2.53.09,1.69,1.51,2.25.1.47.45.47.12.71.43.35.45.75,1.06.26.52.68.73.38.29.33.06.36-.17.47-1.09.87.45,1.53.46.59v.92l.41.09.23.23.32.7.68.28.51.57Z"></path><path id="SY-RD" class="cls-9" d="M109.47,223.79l-.17-1.08-.94-1.06-.35-.89-.23-.21-.41.18-.49.54-1.65,1.07-.52.51-.18.7-.27.17-1-.23-.54-.48-.19-.46-.84-.2-.17-.63-.53-.36-.51-.66-.34.23v.31l.15.73-.37.87-.16.13-.82.14-1,.43-1.49-.12-.46.2-.74.59-.45.14-.72-.08-.27-.54-.69-.26h0l.07-1.26-.1-.26L92,221.82l-.91-.91.28-.45v-.11l-.6-.34h0l-.09-.9.09-.58.23-.59.82-1.08.09-.41v-.23l-.14-.11,1.12-1,.34-.53.07-.39-.31-.85.43-.24,1.53-.33.82-.47.32-.44-.07-.67-.15-.2L94,209.85l-1-.15-.13-.3v-.21l.85-.83v-.94l.52-.65.49-.85.1-.38.14-.12.53-.07.91-1.46,1.2-.32,1.09-.76h.25l.31.55.57.15.84-.07.52-.6.76.19.3.28h.56l1.18.47h.42l.19-.12.35-.56-.19-.42-.59-.51-1.08-.36-.82-.71v-.32l.19-.46.89-1.34.52-.58.5-.19.09-.39.92-.8.07-.41.81-.37,1,.31.6-.34.4-.39.09-.9L109,194l.32-.25.54-.19.18-.74.35-.32.15-.49.71-.39.26-.39-.13-.15h0l.48-.28h.92l1.15.56,1.47.05,1.58-.79.67-.15,2.62,3.23,1.49,2.57.78,1,3.6,2.15.53.14,1.15-.08.23.22.95,1.92.78,1.21.92.62,1.84,2,2,1.53,1.34,1.35.47,1,.57,1.6,1.16,1.65.51.55,1.89,1.47,1,.62,2.35.69,2.81,1.93,2.57,2.43,2,1.45,1.92,1.62,2.43,1.77,1.19,1.14h0l-22.2,13.85h0l-1-1.15-1-.57-.64-.83-.77-.61-2.37-2.31-.26-.47-.21-1.84-.57-.75-.67-.29-.69.48-.39-.06-.62-.42-.73-.3-.13-.38-.66-.88v-.67l-.72-.53-.83-.35-1.62-.16-.45-.21-.37-.44-.17-.92-1.13-1.17-.23-.8-.34-.38-.86-.46-.88-.82h-.51l-1.71.5-4.23.5-.25.11-.08-.11Zm-4.55-12.68-2.69-.09-.36.23v1.17l.46.49.26.63.39.2h1.89Z"></path><path id="SY-HL" class="cls-10" d="M126.85,147.27l-1.24-.51-.51-.57-.68-.28-.32-.7-.23-.23-.41-.09V144l-.46-.59-.47-1.53,1.09-.87.17-.47-.06-.36-.29-.33-.73-.38-.52-.68-1.06-.26-.45-.75-.43-.35-.12-.71-.45-.47-.1-.47L118,133.46l-.09-1.69-.2-.53-.88-.54-1.65-.63-.75-.51-.15-.15v-.52l-.48-.43-.13-.32.22-.41,1-.77,1.73-1.8.21-.44-.11-.46-.34-.29-.59-.91-.72-.54-.15-.85-.27-.32h-.37l-.35.43-.28.17-.76-.13-.78.15h0v-.39l-.27-.27h-.53l-.49.23h-.37l.12-.36.42-.45-.2-.69.06-.54h-.62l-.28-.18-.33-.9V118l-.19-.21V117l-.35-.6.06-.2-.11-.17v-.14l.55-.37.48-.85.35-1.38-.1-.72-.34-1,.11-.66,1.21-1.84,0-.76-.3-.64.24-.64,1-1.12.21-.38v-.34l-.24-.5.19-.32.26.37,1.45.35,1.75.86,2.66.7,1.12-.12,1.19.64.84.84,1,.43v.38L122,110l-.14.59.55.25,1.15,1,.33-.11.5-1.09.61-.12,1.09.32,1.09-.33h1.1l1.84.33,1,0,2.69.52.79-.38.87-.9,3.25-1.84,1.07-.23.87-.36h1.73l.62-.35,2.52-.89,1.85-1.09,1.73-.35.8-1,1.51-.76,1.25-.45.57-.41h1l.6-.25,2.41.43,1.51.11,1.37.52,1.18.64,1.89.8,1.82,1.9h0l.05,1.06.45,2-.11.54-.27.2-1.6.22-.18.27.21,1.07.37.38.48-.09,1.2-.93.34.13.13.3-.06,2.75-.54,2.14-.47,1.55-.64,1-1,1.16-1.68,1.2-2.58,1.43-2.59.51-2.74.14-.83.17-.26.28-1.14.56-.46.44-.54.87-.3.81-.75,1.13-.1,1,.18,1.24.41.6,1.17,1.2.41.72,1.18,1v.33l-.62,1.57-.68.7-1.11,1.56-.67,1.24L149,141.2l-.44,2.08-.09,1.54,2.06,2.62,3.67,3.7h-1.82l-3.17.24-2-.17h-4.14l-3-.41-1.34-.58-2.42-1.67h-.84l-3.68.49h-1.4l-1.56-1Z"></path><path id="SY-RA" class="cls-11" d="M156.07,152.84l-.44-.71-1.36-1h0l-3.67-3.7-2.07-2.67.09-1.54.44-2.08.72-2.24.67-1.24,1.11-1.56.68-.7.62-1.57v-.33l-1.18-1-.41-.72-1.17-1.2-.41-.6-.18-1.24.1-1,.75-1.13.3-.81.54-.87.46-.44,1.14-.56.26-.28.83-.17,2.74-.14,2.59-.51,2.58-1.43,1.68-1.2,1-1.16.64-1,.41-1.49.4-2.29.06-2.75-.13-.3-.34-.13-1.2.93-.48.09-.37-.38-.21-1.07.18-.27,1.6-.22.27-.2.11-.54-.45-2-.05-1.06h0l2.49,2.4,1.45.37,3.8.06,2.74-.2,1.76.21,3.82,1.08,3.16-.83,2.54-.19h0l.1.47.48,1,.23.92,1.58,2.06.49.31.58.09,1.5-.34,1.24.59,2.07.76.52.3.76.65.21.38.07.57h0l-5,22.39h.35l.75.52.47.1-11.71,17.11h0l-3.15-1.23-2.84-.52-3.28-1.13-5.78-1.17-4.31-.51-1.81-.09h-2.28Z"></path><path id="SY-LA" class="cls-12" d="M91,150.55l-2-1.61-.69-.21-.21.35-.22-.26-.21-.07-.09-.12.09-.3h0l-.07.29.17-.21.07-.35-.11-.07.17-.28-.25-.1v-.21l-.1.15v-.25h-.08l-.38-.24v-.13h-.15l.34-.41-.09-.28-.18-.07-.4.18-.11-.22h.32l.35-.26V146h.19l.06-.17h.17l.16-.56.15-.06v.14H88l-.08-.31h.14l.2-.52-.12-.12-.07-.47-.26-.17v-.47l.34-.36.46-.11v-.22l.18-.13v-.15l.27-.14.08-.23.33-.12.1-.75.29-.17-.17-1.38-.24-.31v-.36l-.24-.24v-.53l-.36-.24.14-.43-.3-.1v-.11h.21l.15-.13.11.16h.19l.1.14h.46l.51-.52h.23l.18-.25.2-1,.13-.08.06-.3.14-.21.48-.24v-.12l.46.45,1.77-.74h.19l.39.53L94.42,136l.1.29.84.07,1.8.45.47.34.38.71h0l.15.72-.12.47.08.21.3.17,1.82-.31h1l.46.15.07.22-.14.49-.79.5h0l-.31.13-.2.27v.91l-.1.38-.22.25-.59.15-.18.45.54.92.21,1.49-.09,2.26-.55,3.57.31,1.27.33.68v.8l.65,2.47.08,1.53h0l-1.19-.64-1.2.55-2.66.08-.92.24-.24-.06-1.29-1L92.8,157l-.69-.05h0l-.08-.17h-.15l-.1-.48.07-.57-.09-.26.09-.19-.11-.08.09-.63h-.08L91.69,153l.1-.1-.27-1,.11-.17-.3-.53Z"></path><path id="SY-HM" class="cls-13" d="M101,140.55l.18.34.52.27h.51l.57-.31.4.09.3.85.2.12H105l.21.1v.91l-.61,3.22v.41l.2.52,0,.56.16.93-.28.47.45.86.29,1.13.3.31.71-.14.72-.47.82.42.32.71.26.2h1.07l1.78.5.86.08,1.15-.08.68-.35,2.34-.48,1,.82.23.5.48.3.23.37.31-.14h.67l.19-.1.33-.79.63-.6.4-.69H121l.3.43.09.48-.06.42-.31.66.19,1.46.44.21,1.55-.06.3-.13.3-.51.31-.3.2-.08.47.19.06-.08v-1.47l-.19-.53-.33-.07-.59.81h-.38l-.28-.19v-.54l.44-.67.27-.87.21-.25.87-.27.35-.24.28-.35.52-1.09.22-.78.59-.28h0l2,.64,1.56,1h1.4l3.68-.49h.84l2.42,1.67,1.34.58,3,.41h4.14l2,.17,3.17-.24h1.82l1.36,1,.44.71h0l.06,2.28-.12,2.1-.45,1.18-.86,1.33-.24.58-.12.83.23,1.51-1.87.71-2.16,1-.43.31-.65.7-.06.47-.55,1v.69l-.24.59-.52.6-.3.15-.27-.12-1.36-1.84L144,165l-.31-1.54-.61-.95-1.06-.18-.69-.67-.37-.15-.88.14-2.73.86-.83,0-1.67,1.1-.35.57v1.44l.16.64-.27.34H134l-.45-.67-.19-.11h-1.45l-.47.36-.28.08-.9-.39-.24.21-.05.51-.5-.15-.53.06-.18.57-.33.36-.16.59-.44.38-.75-.28-.52-.82-.56-.09-.74.3-.25.73-.8-.47h-.38l-.47.59-.89.13-2,1.38-.34-.06-.12-.63-.44-.53-.15-.52-.53-.73-.33-.94-.5-.33-.4-.08h-.37l-.62.42-.7.05-.55.48h-1l-.36.17-.3-.12-.48.41-.53.07-.67.28-.59.42-.83.11-.57-.24H110l-.74.44h-.27l-.36-.08-.16-.58-.5-.15.22-.52V167l-.34-.19h-.26l-.32.2-.32.66-.59.44-.12.35,0,.46-.29.24v.56l-.3.22-.06.24-.17.14-.48-.33h-.41l-.25-.42-.19-.11-.3.14-.46.59h-.23l-.16-.69-.62-.19.39-.43-.18-.34h0l-.24-.36-.8-.57-.49-1.37-1.58.21-1.26-.2-.26-.19-.15-.43v-.4l.15-.15.77.07.44-.29.49-.08.13-.16h.53l.7-.64v-.51l.26-.69-.24-1.57-.15-3.16h0l-.08-1.53-.65-2.47v-.8l-.33-.68-.31-1.27.55-3.57.09-2.26L99.89,144l-.54-.92.18-.45.59-.15.22-.25.1-.38v-.91l.2-.27Z"></path><path id="SY-HI" class="cls-14" d="M201.15,199.8l-13.56,7.75-18,10.56-13,8.06h0L155.4,225,153,223.25l-1.91-1.62-2-1.44-2.52-2.41-2.81-1.94-2.35-.68-1-.62-1.9-1.47-.51-.56-1.15-1.64-.57-1.6-.48-1-1.34-1.35-2-1.53-1.84-2-.93-.62-.77-1.22-.95-1.92-.24-.21-1.15.08-.52-.14-3.61-2.15-.77-1-1.49-2.58-2.63-3.22-.66.15-1.58.79-1.47,0-1.15-.56h-.93l-.47.28h0l-.72-.34-.2-.36-.23-1.13.12-.32.3-.32-.06-.49-.94-.33-.8-1.85v-.33l.63-.83-.17-.37-1-.4-.23-.49-1-.52-.45-.79-.08-.49h-.86l-.31.23-.77-.28-.4.27-.52-.23-.23-.36.13-.4,1.29-.58.37-.28.1-.25-.15-.58.37-1h.21l.41.5h.45l.21-1.18-.29-.06-.58.32-.5-.08-1-.64-.53-.52v-.28l-.49-.67-.38-.07-.26.31-.14,1-.6.55-.48.06-.71-.15-.48.21-.68-.4-.79.22L97.71,177l-.65.15h0l.09-.69L98,175l.83-1.2.21-.68.36-.25.31-.65.58-.25.24-.5,1-.88v-1l.18-.49.82-.51h0l.21.38-.39.43.62.19.16.69h.23l.46-.59.3-.14.19.11.25.42h.36l.48.33.17-.14.06-.24.3-.22v-.56l.29-.24,0-.46.12-.35.59-.44.32-.66.32-.2h.26l.34.19v.24l-.22.52.5.15.16.58.36.08h.27l.74-.44h.2l.57.24.83-.11.59-.42.67-.28.53-.07.48-.41.3.12.36-.17h1l.55-.48.7,0,.62-.42h.37l.4.08.5.33.33.94.53.73.15.52.44.53.12.63.34.06,1.86-1.43.89-.13.47-.59h.38l.8.47.25-.73.74-.3.56.09.52.82.75.28.44-.38.16-.59.33-.36.18-.57.53-.06.5.15,0-.51.24-.21.9.39.28-.08.47-.36h1.45l.19.11.45.67h.37l.27-.34-.16-.64v-1.44l.35-.57,1.8-1.09.82-.06,2.73-.86.88-.14.37.15.69.67,1.06.18.61.95L144,165l2.11,1.79,1.36,1.84.27.12.3-.15.52-.6.24-.59v-.69l.55-1,.06-.47.65-.7.43-.31,2.16-1,1.88-.67-.15-1.36.12-.83.24-.58.86-1.33.45-1.18.12-2.1-.06-2.28h0l1.87-.27h2.28l1.81.09,4.31.51,5.78,1.17,3.28,1.13,2.84.52,3.15,1.23h0l1.38.93,1.8,1.55,2.24,4.7-.28,2.61,15.27,21.85,5.15,7.66h0Z"></path><path id="SY-TA" class="cls-15" d="M92.29,174l-.17-1.61L91,169.74l-.3-1-.4-.11-.12-.32.15.29.31.06-.1-.11h-.08l.08-.11H90.4l.12-.07-.12-.06.46-.32v-1.1l-.19-.47.12.09.06-.77.42-.34.13-.27L91.25,164l-.19-.39v-.4l.18-.49-.13-.88.14-.07.08-.32.27-.05.29-.95h.17l.13-.2-.1-.55.21-.25.51-.27.07-.17L92.75,158l-.42-1H93l.42.21,1.3,1H95l.93-.23,2.65-.08,1.2-.55,1.2.64h0l.15,3.15.24,1.58-.26.69v.51l-.71.64h-.52l-.14.16-.49.08-.44.3L98,165l-.16.16v.4L98,166l.26.19,1.27.2,1.57-.21.49,1.36.81.58.24.36h0l-.92.45-.18.49v1l-.92.81-.25.5-.57.26-.32.65-.36.24-.21.68-.82,1.2-.81,1.51-.09.69h0l-.75.21-.53-.08-.76.07-.45-.41-.6-.05L94,176.5l-.33.34v-.11l-.24.13Z"></path><path id="SY-DI" class="cls-16" d="M102.61,213.55l-.26-.63-.46-.49v-1.17l.36-.23,2.69.09v2.57l-1.89.06Z"></path><path id="SY-QU" class="cls-17" d="M90.65,220l.6.35v.11l-.29.45.92.91L93,222l.1.26L93,223.49h0l-.27,1.45,0,.16.72.45.1.34-.76,1.51-.19,1.73.62,1.21.43.52.09.63-.14.2-.42-.51-.9.1v.24l.25.48v.8l-.78.75h0l.22-.69-.56-.88-.23-2.12-.14-.46.08-1-.13-.57.17-.26.54.15.45-.12v-.22l-.36-.52.48-.52.06-.83-.56-.82-.8-.22-.06-.35.33-.43.16-.51-.22-1-.86-1,.31-.53Z"></path><path id="SY-DR" class="cls-18" d="M104.32,249l-1.16-1.18-3.52-2.72-.74.32-1.2-.18h-.62l-.54.16-.17-1-.37-.85-1-1,.12-1.12L95,241l-.45-.24h-.7l-.55-.3.26-.35v-.28l-.21-.19h-.32l-.3-.2-.18-.46-.22-.2-.44.06-.52-.08-.61-.35h-.45l-.72.21-.4-.18-.09-.15h-.25l-.09-.13.12-.34.84-1,.66-1.19.44-.47.88-1.72h0l.78-.75v-.8l-.25-.48v-.24l.9-.1.42.51.14-.2-.09-.63-.43-.52L92.59,229l.19-1.73.76-1.51v-.25l-.64-.46,0-.16.27-1.45h0l.69.27.27.53.72.08.45-.13.73-.6.47-.2,1.49.13.94-.44.83-.13.15-.14.38-.87-.15-.73v-.31l.35-.23.51.67.53.35.17.64.83.19.27.46.55.48,1,.23.24-.18.18-.72.52-.51,1.65-1.07.49-.54.41-.18.23.21.35.88.94,1.07.17,1.08h0l-.35.31h-.25l-1-.15-.75.57-.32.65.13.46-.08.58.37,1,.08.87.25.17.55-.17.35.07.11,1,.31.72-.36.09-1.65-.11-.88.06-.64.24-1.11.94-.82.5-.09.34.17.49-.3.8.25,1.2.5,1-.3.66.13,1.16.31.94v.18l-.26.1-.06.17,0,.9.22.21.91.25,1.06.12.32.42-.11.61-.69.55-.63.26v.18l.28.52-.23.78.28.15h1.31l.42.39.52-.06.29.22.08.21v.24l-.33.4-.08.29.82,1,.09.27-.29,1.6.14,1.1-.22,1.31h0l-.27-.08-.62-.45-1.9-.28Z"></path><path id="SY-SU" class="cls-19" d="M109.47,223.79l.07.09.26-.12,4.22-.5,1.72-.49h.5l.88.82.86.46.34.38.23.81,1.12,1.16.17.92.38.44.45.21,1.61.16.84.35.72.53v.68l.66.87.13.39.72.3.62.41.4.07.69-.48.67.28.57.75.21,1.85.26.47,2.36,2.3.78.62.64.82,1,.58,1,1.15h0l-14.67,9.32-1.8,1.35-1.18,1.13-.55.06-2.34-.69-.68.23-.57-.45-.58-.1-4.23-.45h0l.22-1.31-.14-1.1.29-1.6-.09-.27-.82-1,.08-.29.33-.4v-.26l-.08-.21-.29-.22-.52.06-.4-.32-.91.08h-.48l-.28-.15.23-.78-.28-.52V242l.63-.26.69-.55.11-.61-.32-.42-1.06-.12-.91-.25-.22-.21,0-.9.06-.16.26-.11v-.18l-.31-.94-.13-1.16.3-.66-.5-1-.25-1.2.3-.8-.17-.49.09-.34.82-.5,1.11-.94.64-.24.88-.06,1.65.11.36-.09-.26-.73-.11-1-.35-.07-.55.17-.25-.17-.08-.87-.37-1,.08-.58-.13-.46.32-.65.75-.57,1,.15h.25Z"></path></g></g></svg></g></g></svg>