<svg xmlns="http://www.w3.org/2000/svg" version="1.1" xmlns:xlink="http://www.w3.org/1999/xlink" width="1000" height="1000"><metadata><rdf:RDF xmlns:rdf="http://www.w3.org/1999/02/22-rdf-syntax-ns#" xmlns:dc="http://purl.org/dc/elements/1.1/"><rdf:Description><dc:creator>RealFaviconGenerator</dc:creator><dc:source>https://realfavicongenerator.net</dc:source></rdf:Description></rdf:RDF></metadata><g clip-path="url(#SvgjsClipPath1009)"><rect width="1000" height="1000" fill="#ffffff"></rect><g transform="matrix(2.0833333333333335,0,0,2.0833333333333335,150,150)"><svg xmlns="http://www.w3.org/2000/svg" xmlns:xlink="http://www.w3.org/1999/xlink" viewBox="0 0 336 336" width="336" height="336"><defs><style>.cls-1{fill:#1a2e42;}.cls-2{fill:url(#linear-gradient);}.cls-3{fill:url(#linear-gradient-2);}.cls-4{fill:url(#linear-gradient-3);}.cls-5{fill:url(#linear-gradient-4);}.cls-6{fill:url(#linear-gradient-5);}.cls-7{fill:url(#linear-gradient-6);}.cls-8{fill:url(#linear-gradient-7);}.cls-9{fill:url(#linear-gradient-8);}.cls-10{fill:url(#linear-gradient-9);}.cls-11{fill:url(#linear-gradient-10);}.cls-12{fill:url(#linear-gradient-11);}.cls-13{fill:url(#linear-gradient-12);}.cls-14{fill:url(#linear-gradient-13);}.cls-15{fill:url(#linear-gradient-14);}.cls-16{fill:url(#linear-gradient-15);}.cls-17{fill:url(#linear-gradient-16);}.cls-18{fill:url(#linear-gradient-17);}.cls-19{fill:url(#linear-gradient-18);}</style><linearGradient id="linear-gradient" x1="70.27" y1="252.42" x2="85.06" y2="252.42" gradientUnits="userSpaceOnUse"><stop offset="0" stop-color="#c7ac7b"></stop><stop offset="1" stop-color="#19736a"></stop></linearGradient><linearGradient id="linear-gradient-2" x1="0" y1="125.88" x2="336" y2="125.88" xlink:href="#linear-gradient"></linearGradient><linearGradient id="linear-gradient-3" x1="84.14" y1="282.65" x2="98.92" y2="282.65" xlink:href="#linear-gradient"></linearGradient><linearGradient id="linear-gradient-4" x1="96.12" y1="312.87" x2="110.9" y2="312.87" xlink:href="#linear-gradient"></linearGradient><linearGradient id="linear-gradient-5" x1="105.45" y1="196.21" x2="212.94" y2="196.21" xlink:href="#linear-gradient"></linearGradient><linearGradient id="linear-gradient-6" x1="98.96" y1="174.44" x2="110.76" y2="174.44" xlink:href="#linear-gradient"></linearGradient><linearGradient id="linear-gradient-7" x1="97.97" y1="221.91" x2="163.77" y2="221.91" xlink:href="#linear-gradient"></linearGradient><linearGradient id="linear-gradient-8" x1="193.59" y1="125.6" x2="271.28" y2="125.6" xlink:href="#linear-gradient"></linearGradient><linearGradient id="linear-gradient-9" x1="155.96" y1="140.15" x2="203.18" y2="140.15" xlink:href="#linear-gradient"></linearGradient><linearGradient id="linear-gradient-10" x1="116.53" y1="134.42" x2="173.18" y2="134.42" xlink:href="#linear-gradient"></linearGradient><linearGradient id="linear-gradient-11" x1="106.44" y1="145.83" x2="134.67" y2="145.83" xlink:href="#linear-gradient"></linearGradient><linearGradient id="linear-gradient-12" x1="95.16" y1="154.07" x2="110.12" y2="154.07" xlink:href="#linear-gradient"></linearGradient><linearGradient id="linear-gradient-13" x1="111.38" y1="243.79" x2="142.05" y2="243.79" xlink:href="#linear-gradient"></linearGradient><linearGradient id="linear-gradient-14" x1="96.38" y1="241.99" x2="117.58" y2="241.99" xlink:href="#linear-gradient"></linearGradient><linearGradient id="linear-gradient-15" x1="188.3" y1="163.72" x2="242.99" y2="163.72" xlink:href="#linear-gradient"></linearGradient><linearGradient id="linear-gradient-16" x1="97.7" y1="234.03" x2="102.14" y2="234.03" xlink:href="#linear-gradient"></linearGradient><linearGradient id="linear-gradient-17" x1="106.09" y1="162.84" x2="163.44" y2="162.84" xlink:href="#linear-gradient"></linearGradient><linearGradient id="linear-gradient-18" x1="107.33" y1="220.32" x2="111.81" y2="220.32" xlink:href="#linear-gradient"></linearGradient><clipPath id="SvgjsClipPath1009"><rect width="1000" height="1000" x="0" y="0" rx="350" ry="350"></rect></clipPath></defs><g id="Layer_2" data-name="Layer 2"><g id="Layer_1-2" data-name="Layer 1"><path class="cls-1" d="M53.6,245H7.39a7.4,7.4,0,0,0,0,14.79H53.6a7.4,7.4,0,1,0,0-14.79Z"></path><path class="cls-1" d="M65.93,275.25H7.39a7.4,7.4,0,0,0,0,14.79H65.93a7.4,7.4,0,0,0,0-14.79Z"></path><path class="cls-1" d="M78.25,305.47H7.39a7.4,7.4,0,0,0,0,14.79H78.25a7.4,7.4,0,0,0,0-14.79Z"></path><circle class="cls-2" cx="77.67" cy="252.42" r="7.39"></circle><path class="cls-3" d="M336,168A168,168,0,1,0,9.47,223.69H38.32a141.11,141.11,0,1,1,250.16,17.78l25.18,10.3A167.27,167.27,0,0,0,336,168Z"></path><path class="cls-1" d="M288.48,241.47A141.27,141.27,0,0,1,143.77,307v27.23a168.12,168.12,0,0,0,169.89-82.48Z"></path><circle class="cls-4" cx="91.53" cy="282.65" r="7.39"></circle><circle class="cls-5" cx="103.51" cy="312.87" r="7.39"></circle><g id="features"><path id="SYHI" class="cls-6" d="M163.77,232.4v0L153,223.74l-.82-.51-.66-.54-.17-.09-.25-.12,0,0-.06,0-.44-.08-.26-.09-1-.26-.41-.17-.27-.19-.74-.43-1.8-1.4-1.78-2.42-.16-.42-.1-.2-.13-.42,0-.06,0-.08,0-.19-.25-.62-.15-.27-2.58-2.39-.25-.19-.45-.29L138,210.14l-.41-.27-.17-.16-1.38-2.27,0,0-.07-.14-.18-.41,0-.05,0-.06,0-.06,0,0-.15-.12-.52-.17-.53.06h-.29l-.11,0-.27-.1-2.58-1.51h0l-.16-.1-.29-.21-.91-.83-.11-.22-.08-.09,0,0-.12-.1,0,0-.08-.13,0-.1,0-.08-.25-.44-.06-.1-.19-.31,0,0-.16-.29-.4-.62-.18-.35-.15-.21-.47-.49-.39-.6-.36-.36-.6-.74-.08-.12,0-.05-.33-.49-.16-.13h-.32l-.8.26-.93.52-.06,0h-.23l-1.88-.25-.46-.27-.14,0h-.62l-.43.09-.64.37-.09,0-.45.14-.13-.31-.64-.64-.18-.47-.13-.6.21-.4.25-.35,0-.27,0-.16-.14-.25-.17,0-.19,0-.2-.08-.29-.31-.56-.81-.14-.25-.07-.26,0-.27.07-.15.1-.16.06-.23.1-.52v-.35l-.13-.29L116,191l-.19.06-.19-.12-.37-.49-.47-.19-.35-.29-.27-.43L114,189l-.29-.1h-.08l-.14,0h-.09l-.12,0-.25,0h-.51l0,0h-.33l-.53.15-.07,0h-.14l-.08,0-.07-.13-.26-.51.06-.08h0l.33-.37.74-.39.5-.41.14-.52,0-.47.06-.38.38-.25h0l.39.1.29.23.06,0,.13-.12.1-1-.64.21-.66,0-.62-.23-.54-.46-.62-1.15-.19-.13-.2-.14-.56.39-.08.25V184l-.1.29-.25.25-.2.1-.06,0-1.6.08-.16-.06-.31-.23-.06,0-.07,0-.16,0-.17.11-.16.08-.11,0-1.15-.08v0l0-.11,0-.22,0-.64.06-.21,1.8-3.27.62-.86,0,0,0,0,0,0,.17,0,.1-.08.11-.1.41-.54.7-.6.07-.1.06-.09v-.29l-.06-.31v-.12l0-.14.06-.29.06-.13,0-.08.06-.08,0,0,.09,0,.2-.1.48-.16.18.31v.1l-.07,0,0,.06-.18.21,0,.08,0,.06.06,0,.06,0h.06l.08.07.11.12.23.37.12.13.12.08,0,0,0,0,.08-.08L112,177l.06-.08.08,0h.09l.2,0,.09.06.08.06.2.31.79.19.1,0,.13,0,.06-.08.21-.23,0-.08v-.33l0-.1,0-.11.15-.18,0-.1,0-.09,0-.2v-.27l.66-.71.22-.35.21-.29,0,0,0,0,0,0,.24-.06H116l.1,0,.09.06,0,0,0,0,0,.06,0,.06v.06l0,.06,0,.06-.06.09-.09.12,0,.06,0,.05V175l0,.06,0,0,0,0,.19,0h.06l.06,0,0,0,.06,0,0,0,0,.06v.22l.06.07.08.08.25.12.15,0,.12,0,.06,0,.11,0,.31-.2.6-.15,1.3.06,2.08-1.07.25-.1,0,0h.17l.23-.06h.26l.09,0,.84-.05.09,0,.35-.33.16-.08.17,0h.25l.12,0,.11,0,.39-.27.18-.06.15,0,.27,0,.35.12.39.33.13.17,0,.06.82,1.61.66,1.47.54-.19.15-.08,1.32-1.06.18-.12.23-.08.44,0,.14,0,.08,0,.29-.39.09-.08.08,0h.2l.05,0,0,0,.16.1.07.06,0,0,.22.08.21.12h.06l0-.06,0-.17.09-.12.16-.16.62-.4.15-.06h.2l.11,0,.1.06.08.05.07.08,0,0,0,0,.12.27.1.19,0,.08,0,0,.1.06.21.12.33.07h.1l.08,0,.17-.11.14-.16,0-.06,0,0,0-.12.1-.41,0-.06,0,0,0,0,.19-.2,0,0,0,0,.06-.28,0-.07.05-.12.1-.06.06,0,.08,0h.27l.42.12.08,0,.06,0v-.13l0-.1,0-.12.13-.17.1-.06.08,0,.06,0,0,0,.28.19.21.06.21,0,.2-.06.17,0,.23-.18.12-.06.1,0h.15l.35-.05h.15l.2,0,.31,0,.13,0,.1,0,.06,0,0,0,.23.41.1.13,0,0,.12,0,.21,0h.1l.08,0,0,0,0,0,0,0,0-.08,0-.05,0-.06v-.14l0-.11-.13-.39,0-.14V172l.06-.45,0-.11.09-.21,0,0,0,0,.12-.12.17-.13.52-.28L144,170l.17-.09.16,0h.35l.36-.08,1.22-.45,2.19-.52h.12l.08,0,.06,0,.17.12.15.13.31.37,0,0,.08.06.12,0,.09,0,.14,0,.54,0,.12,0,0,0,.09.06,0,0,.12.15.08.14,0,.12,0,0,0,.1,0,.06,0,0,.14.15,0,0v0l.12.46,0,.18,0,.35.1.42,0,.06v0l.1.14.23.21.08.06.06,0,1.49,1.24.18.19.23.35,1,1.34.15.13.08,0,.08,0,.19-.08.06,0,.48-.55,0-.05,0-.1,0-.12,0-.06,0-.09,0,0,0-.06,0-.06,0-.06,0-.13v-.14l0-.27V174l0,0,0-.06.14-.25.13-.31,0-.06.16-.22,0,0,0-.06v-.06l0-.27v-.08l.12-.14.72-.67.44-.33,3.49-1.55.19-.18.08-.15-.14-1.09v-.27l0-.27.08-.27.12-.35.09-.21.66-1,.25-.47.28-.67.13-.53.08-3.62,0-.56,2.34-.27,7.79.6,14.77,4,2.67,2.17.83,1.06,1.67,3.59.1.29,0,.31-.18,1.86,0,.35.12.29.11.19L198,181l14.92,21.51h0l-1.9,1.15-2.92,1.78-2.93,1.76-2.92,1.77-2.93,1.76-2.93,1.76-2.92,1.77L190.56,216l-2.92,1.76-2.95,1.76-2.92,1.77L178.84,223l-2.92,1.76-6.47,4-5.68,3.59Z"></path><path id="SYTA" class="cls-7" d="M105.45,184.62l-.48,0-.18,0h0l-.27.06h-.09l-.33.06-.22,0h-.38l0,0h0l-.06,0-.08,0-.11,0-.28-.07-.4-.33-.06,0-.19-.1h0l-.1,0-.12,0-.35,0-.09-.6-.49-1-.17-.87-.27-.46-.06-.29v-1.32l-.08-.19-.46-.82-.1-.31-.14-.68-.85-2.3.16-.1,0-.15.15-.2,0-.23,0-.21-.15-.22v-.23l.13-.13v0l-.06,0-.07-.23.21-.47.15-.23.2-.22.15-.48-.09-.48-.16-.43-.1-.37v-1.55l.18-.39,1.24-1.91.56-.57-.23-.87-.6-1.2,0,0,1.12.37.41.27.77.66.18.06,4-.33.09,0,.2-.1.37-.23.35,0,1,.5,0,.62.31,3.82v.5l-.21.74-.1.19-.08.12-.19.13-.1.08-.17.21-.1.06-.37,0-.11,0-.16.14-.11,0-.24,0-.11,0-.1,0-.15.14-.1,0-.1,0h-.11l-.26-.05-.25,0-.29.17.2.85,1.24.25.42,0,1-.09.23.05.16.08.15.39.12.45.07.21,0,.1.12.09.68.49.11.15.1.21-.48.16-.2.1-.09,0,0,0-.06.08,0,.08-.06.13-.06.29,0,.14v.12l.06.31v.29l-.06.09-.07.1-.7.6-.41.54-.11.1-.1.08-.17,0,0,0h0l0,0-.62.86-1.8,3.27-.06.21,0,.64,0,.22,0,.11v0Z"></path><path id="SYRD" class="cls-8" d="M163.77,232.4l-2.25,1.41-4.59,2.91-3.37,2.17L149,241.81l-4.54,2.93-2.42,1.57,0,0-.44-.58-.24-.25-1.3-1-3.58-3.64-.08-.12,0,0v0l0-.13-.11-1.44-.08-.31,0-.1-.06-.11-.09-.18-.2-.19-.4-.14-.78,0-.11,0-.08.08,0,0,0,0-.1,0h0l-.35-.16-1.34-.77-.06-.19,0-.08-.06-.06-.05-.06,0,0v0l0-.05,0,0,0-.1,0,0-.06-.08,0,0h0l0,0,0-.06-.06-.1-.06-.1v0l0,0V236l0-.11v-.14l0-.06v0l0,0,0,0,0,0-.08-.06-.31-.19-.14-.1-.07-.08,0,0-.14-.07-1.72-.39H129l-.44-.06-.1-.06-.54-.41-.08-.05,0-.06,0,0,0-.12,0-.13,0-.27-.06-.27,0-.12,0-.06-.06-.08-.93-1-.06-.07-.06-.1,0-.39,0-.09-.12-.22-.29-.33-.08-.06-.77-.42-.24-.18-.21-.23-.12-.1-.25-.25,0,0-6.7,1-.06-.33,0-.5v-.06l0-.06,0,0,0-.1,0-.06-.91-1.05,0-.09-.06-.1-.12-.39,0-.09,0-.1,0-.06-.06-.06-.1-.07h-.19l-.45.31-.13.19-.1.08-1.3.81v0h0l-.09.06-.8.73-.1.14,0,.06v.06l0,.33v.07l0,0,0,.06,0,0-.08,0,0,0h-.15l-.2,0-.69-.2-.12-.05-.06-.08-.08-.08-.27-.17,0,0,0,0-.09-.25,0,0,0,0-.08-.08,0,0-.11,0-.49,0-.07,0-.06,0,0,0,0,0,0,0,0-.06v-.05l0-.33,0,0,0-.06,0,0,0,0,0,0-.27-.13-.06,0-.06-.06-.13-.17-.22-.37,0,0,0,0,0,0-.06,0-.08.06-.08.1-.11.29,0,.15,0,.1.1.35v.25l0,.12,0,.09-.16.29-.09.26-.26.11-1.1.37-.41.21-.09,0-2.12.18,0,0-.39.34-.18.14-.09,0-.16.06-.15,0h-.51l-.17-.06-.1-.12-.15-.29-.12-.1-.06-.05-.58-.24,0-.21,0-.15,0-.49,0-.25v-.21l0-.06-.06-.06-.1-.06-.34,0-.31,0-.6-.11H100l-.06,0-.1,0,0,0,0,0v0l0,0v0l0,.12,0,.11,0,0,0,0-.06,0-.06-.08-.17-.37,0-.11,0-.06V228l0-.18,0-.19,0-.08,0-.05.09-.18.14-.15,0-.06v-.06l-.27-.17-1.11-.59-.21-.52-.14-.39V225l.14-.43.27-.33.43-.33.23-.25.08-.29,0-.15-.06-.33.48-.29.82-.7.42-1-.35-.64.3-.43.62-.19H102l.5-.23.56-.35.41-.48.08-.61-.24-.34-.44-.33-.49-.26-.38-.09-.61-.35-.6-.12-.34-.21.11-.68.1-.11.35-.14.11-.12.08-.31-.08-.58,0-.25.2-.29.48-.45L102,213l.36-.55.88-.75.36-.68.26-.35.42-.17.12,0,.39-.1.44-.21.95-.58.17.09.08.1.27.33.22.14h.54l.06,0,.37-.24.36-.29.41-.15.39.08.08,0,1.35.65,1,.26.5-.1.23-.31.08-.1,0-.66-.46-.29-1-.17-.79-.6-.16-.2-.17-.31-.06-.11.58-1.16.35-.57.43-.52,1-.93.89-1.12.57-.27h.29l0,0,.55.2h.11l.24,0,.44-.21.14-.3.06-.38.15-.45.52-.66,1.19-1,.6-1.05.75-.81,0,0,.45-.14.09,0,.64-.37.43-.09h.62l.14,0,.46.27,1.88.25h.23l.06,0,.93-.52.8-.26h.32l.16.13.33.49,0,.05.08.12.6.74.36.36.39.6.47.49.15.21.18.35.4.62.16.29,0,0,.19.31.06.1.25.44,0,.08,0,.1.08.13,0,0,.12.1,0,0,.08.09.11.22.91.83.29.21.16.1h0l2.58,1.51.27.1.11,0h.29l.53-.06.52.17.15.12,0,0,0,.06,0,.06,0,.05.18.41.07.14,0,0,1.38,2.27.17.16.41.27,2.13,2.13.45.29.25.19,2.58,2.39.15.27.25.62,0,.19,0,.08,0,.06.13.42.1.2.16.42,1.78,2.42,1.8,1.4.74.43.27.19.41.17,1,.26.26.09.44.08.06,0,0,0,.25.12.17.09.66.54.82.51,10.77,8.64v0ZM110.86,222l.09-.39.6-.62.26-.7-.06-.58,0-.35-.43-.58-.73-.06-1.48.43-.79,0-1,.56.2.58.42-.06.62.31-.56.6.14.31.6-.39,1.6.82.51.08Z"></path><path id="SYHA" class="cls-9" d="M243,154.77l-3-.43-5.22-.12-2-.42-1-.35-1.65-.37-.48-.21-.85-.51-19.82-19.45-3.32-3.39-2-3.29-.58-1.28,0-.43,0-.13,0-.1-.17-.27-.3-.29-1.64-1-2.42-1-.14,0-.14,0-.11,0-.1,0-.42.16-.22,0-.48.06-.29,0-.27-.07-.22-.1-.37-.33-1.33-1.73-.23-.54-.62-1.86,8.56-1.64,5.68-2.15,2.63-1.59.95-.31,1-.2,1-.46,1.89-1.28,3.51-2.35.52-.34.57-.22.58-.11.6,0,1.22-.35,3.54-2,1.3-.5,5-.74,6.32,1.28,1.18.49.58.15,7.36-.35,11-2.61,3-.7,1.14-.72,2-1.88L266,97.05l.38-.23.49-.39.29.37,0,.39,0,.33,0,.13.37.08.79.39.16-.08.17-.18.17-.15.16.06.12.17.13.33.12.18.89.73.19.1.18.4-.49,1.86.31.43.21.19,0,.49,0,.93.18.39.19.35.16.36v.49l-.82.64-1.7,1.61h0L266,110.36,260.74,116l-3.57,3.81-.7.6-.73.35-8.22,1.77-1.7.27-.8.37-.52.73-2.34,4.59-.22.88-.85,8.23v.54l.12.56.68,1.61,2,4.46.29,1,.14,1.09.09,4.47-.13,1-.43,1-.89,1.36Z"></path><path id="SYRA" class="cls-10" d="M172.24,115.69l.75.81,1.63.85,1.86.24,4.3-.2.58-.17,1.38-.1,4.06,1.38,1.44-.06,5.35-1,.62,1.86.23.54,1.33,1.73.37.33.22.1.27.07.29,0,.48-.06.22,0,.42-.16.1,0,.11,0,.14,0,.14,0,2.42,1,1.64,1,.3.29.17.27,0,.1,0,.13,0,.43-1.73,7.75-2.58,11.89-.29,2V147l.2.06.75.52.22.1-.22.44L188.3,164.61l-14.77-4-7.79-.6-2.34.27-.41-.62-.31-.33-1-.8-5.1-5.42-.39-.5-.05-.12-.06-.16-.06-.21,0-.15v-.16l.16-1.16.67-3,.74-1.82.23-.38.14-.18.08-.08,1-1.47.53-.52.13-.18.06-.09.19-.47.12-.39,0-.07.06-.16,0-.15,0-.35,0-.18-.1-.15-1.05-.89,0,0-.35-.58-.34-.47-.37-.39-.25-.32-.24-.47-.33-1-.09-.52,0-.41,0-.23.06-.23.09-.24.58-.89.33-.77.25-.47.28-.4.29-.31.15-.12.45-.25,1.08-.56.74-.18,1,0,4.37-.73,2.16-1.2,1.74-1.22.31-.31.25-.26,1-1.53.31-.66.17-.56.2-1.12v0l.21-.95.12-.93,0-2.21v-.13l0-.1,0-.12-.08-.08-.08-.07-.11,0-.12,0-.12,0-.17.09-.64.57-.27.19-.21.08h-.24l-.09,0-.08-.08-.1-.17-.08-.27-.13-.59,0-.27,0-.19.1-.06.09,0,1.34-.17.13-.08.12-.14.16-.29.05-.19v-.29l-.34-1.49Z"></path><path id="SYHL" class="cls-11" d="M172.24,115.69l.34,1.49v.29l-.05.19-.16.29-.12.14-.13.08-1.34.17-.09,0-.1.06,0,.19,0,.27.13.59.08.27.1.17.08.08.09,0h.24l.21-.08.27-.19.64-.57.17-.09.12,0,.12,0,.11,0,.08.07.08.08,0,.12,0,.1v.13l0,2.21-.12.93-.21.95v0l-.2,1.12-.17.56-.31.66-1,1.53-.25.26-.31.31-1.74,1.22-2.16,1.2-4.37.73-1,0-.74.18-1.08.56-.45.25-.15.12-.29.31-.28.4-.25.47-.33.77-.58.89-.09.24-.06.23,0,.23,0,.41.09.52.33,1,.24.47.25.32.37.39.34.47.35.58,0,0,1.05.89.1.15,0,.18,0,.35,0,.15-.06.16,0,.07-.12.39-.19.47-.06.09-.13.18-.53.52-1,1.47-.08.08-.14.18-.23.38-.74,1.82-.67,3-.16,1.16V152l0,.15.06.21.06.16.05.12.39.5,5.1,5.42-11.3,0-2.23-.33-1.2-.35-.44-.21-1.75-1.22,0,0-.5-.35-4.36.31-1.53,0-.19,0-.24-.12-.94-.64-2.27-.79-1.11-.45-.13-.1-.39-.4-.17-.12-.14-.08-.23-.08-.14-.07-.83-1-.14-.21-.09-.58-.08-.22-.17-.25-.24-.48-.38-1.22.13-.24.16-.13L131,149l.07-.06.18-.13.11-.14.1-.11.1-.2,0-.11,0-.14V148l0-.11-.08-.14-.14-.13-.77-.55-.52-.52-.33-.21-.41-.06-.14,0-.09,0L129,146l-.21-.31-1.34-2.42L126,141.17l0-.12,0-.14v-.27l-.06-1,0-.26,0-.21-.16-.15-.25-.18-2.23-1-.23-.13-.23-.23-.26-.27-.19-.39-.54-.74.33-.54.87-.74.15-.15.12-.2.14-.15.05,0,0,0,.27-.15.08-.08.19-.27.53-.53.13-.17.12-.21,0-.12,0-.13,0-.18-.1-.21-.7-.89-.81-.78-.14-.29-.05-.5,0-.12,0-.1-.06-.07-.1-.08-.13,0-.18,0-.56.43-.13.05-.86,0-.91.2-.33.19v0l-.31-.35-.42-.17-.87-.1-.28-.25.12,0,.16-.29.15-.48,0-.29,0-.26-.08-.23-.11-.21-.14-.1-.42-.19-.18-.16-.13-.25-.51-1.78-.08-.54.12-.51.79-1.26.12-1.43,0-1.45.37-1.4.31-.77.1-.66,0-.64.11-.72.33-.66.43-.58.29-.64-.08-.81.23,0,.26,0,0,0,4.87,1.68,1.66.12.53.11.52.22.5.29.41.39.79.73.22.43,0,.7-.24,1,.12.39.48.44.53.3.25-.08.21-.31.41-.41.48-.23.45,0,.43.13.5.06,1.69-.43.58,0,4.3.79,1.1,0,2-1.3,1.88-1.22,1.6-.72,4.4-.94,4.25-2,.73-.19.49-.31,2.55-1.63,1.79-.7.89-.1,1.74.22,5,1.53,1.3.71,2.81,3Z"></path><path id="SYID" class="cls-12" d="M106.6,146l.05,0,.29-.95.16-2.3.58-.95.85-.31.64.17.43-.1.21-1.16h0l.52-.21,1.05.41.56-.2-.08-.93.08-4.73.06-.48.15-.25.22-.22,0-.29L112,133l.31-.31.33.41.33.23.37.11.73.1.16.06h.13l.24-.1.11-.19,0-.23.1-.22.31-.09.48-.08,2,.31h.5l1.88-.35.16-.27,0-.76-.1-.46-.19-.52-.26-.51L120,130l.91-.2.86,0,.13-.05.56-.43.18,0,.13,0,.1.08.06.07,0,.1,0,.12.05.5.14.29.81.78.7.89.1.21,0,.18,0,.13,0,.12-.12.21-.13.17-.53.53-.19.27-.08.08-.27.15,0,0-.05,0-.14.15-.12.2-.15.15-.87.74-.33.54.54.74.19.39.26.27.23.23.23.13,2.23,1,.25.18.16.15,0,.21,0,.26.06,1v.27l0,.14,0,.12,1.41,2.09,1.34,2.42.21.31.18.19.09,0,.14,0,.41.06.33.21.52.53.77.54.14.13.08.14,0,.11v.14l0,.14,0,.11-.1.2-.1.11-.11.14-.18.13L131,149l-.31.14-.16.13-.13.24.38,1.22.24.48.17.25.08.22.09.58.14.21.83,1,.14.07.23.08.14.08.17.12.39.4.13.1,1.11.45-.49.29-.07.09-.08.16-.29.68-.66,1.16-.16.21-.17.12-.56.23-.33.21-.16.16-.13.25-.52,1.1-.06.24,0,.13v.12l0,.12.07.07.08.06.12,0,.11,0h.14l.1,0,.09-.06.08-.08.06-.07.15-.33.08-.08.06-.08.08-.06h.21l.1.06.07.08,0,.08,0,.11,0,.24,0,1.35,0,.1h-.09l-.1,0-.12,0-.11,0-.12,0-.1,0-.07.06-.1.08-.14.19-.23.37-.08.08-.11.05-.16.06-.13,0-.55,0-.6.08h-.25l-.11,0-.12,0-.1-.06-.08-.07,0-.1,0-.1v-.4l0-.12L129,161v-.25l0-.11.25-.55,0-.13,0-.12v-.13l0-.26,0-.11,0-.12,0-.1-.05-.09-.06-.08-.1-.06-.13,0-.08,0-.08.1-.21.41-.1.11-.58.56-.47.72-.15.12L127,161h-.19l-.27.06h-.15l-.12,0-.06-.09-.06-.08-.06-.08-.29-.19-.07-.06-.08-.08-.12-.19,0-.1-.09-.19-.8-.72-.09,0-.12,0h-.23L121,160l-1.36,0-1.78-.51-.25,0-.5,0-.28,0-.13,0-.1,0-.09-.06-.06-.08-.06-.1,0-.09-.08-.22-.09-.19-.06-.08-.1-.06-.46-.23-.18-.08-.11,0-.93.47-.57-.18-.17-.19-.14-.56-.58-1.3v0l0-.1,0-.07.06-.14.06-.17-.24-2.19.06-.58.37-1.77.17-1.43,0-.41-.2-.11-1.16,0-.35-.12-.06-.1,0-.11,0-.1,0-.13-.08-.16-.16-.17-.09-.08-.1-.06H111l-.11,0-.1,0-.1.06-.31.09-.35,0-.19,0-.21-.07-.1-.06-.12-.1-.05-.08-.12-.21.66-.46.19-.26,0-.13v-.14l0-.11-.09-.14-.12-.06-.12,0-1.8.08-.23.06-.21.08-.16,0h-.19l-.39,0-.19-.08-.1-.1,0-.1v-.11l0-.14,0-.11,0-.08.06-.19V146Z"></path><path id="SYLA" class="cls-13" d="M106.6,146v.16l-.06.19,0,.08,0,.11,0,.14v.11l0,.1.1.1.19.08.39,0h.19l.16,0,.21-.08.23-.06,1.8-.08.12,0,.12.06.09.14,0,.11v.14l0,.13-.19.25-.66.47-.43.37-.11.29-.06.81,0,.22-.08.13-.4.29-.26.27-.07.18,0,.13,0,.1.31.43.09.19.08.21.06.37.08,1-.1,2.17-.52,3.58,0,.14.17.62.43,1.26.69,3.27.06,1.26-1-.5-.35,0-.37.23-.2.1-.09,0-4,.33-.18-.06-.77-.66-.41-.27-1.12-.37,0,0-.41-.85.35-1.09-.12-.54-.19-2.11.06-.47-.27-.27-1.28-1.72-.55-.27-.27-.2-.09-.33-.22-.17-.42.06-.41.15-.14.08-.29-.13,0-.37.14-.45,0-.39-.16-.17-.93-.5.06-.16,0-.33.08-.17h-.18l-.35.19v-.19l.53-.2.52-.33.41-.48.15-.58-.06-.35-.23-.45-.06-.4.14-.24.62-.21,1-2,0-.18v-.75l-.11-.64-.27-.76-.37-.72-.35-.46,1.28.08.64-.16.27-.48.12-.64.67-1,.26.08.52-.1.54-.19.51-.08.34.37v.42l-.07.43,0,.39.31.27.41.1.83,0,.78.36,1.55,1.13.45-.08Z"></path><path id="SYSU" class="cls-14" d="M142.05,246.31l-2.11,1.34-4.54,2.92-2.92,1.88-4,2.66-4.26,2.9-.35.14-.37,0-1.68-.45-.59,0-.44.27-1-.73-3.62-.45v-.19l.09-.89,0-.08-.07-1.51v-.14l.2-.62,0-.11,0-.27,0-.1-.06-.16-.27-.4-.35-.43-.14-.19v-.18l.16-.33.17-.23,0,0,0-.19-.31-.49-.44,0h-.06l-.06,0-.07,0-.12-.07-.06-.1-.12-.12-.05,0-.06,0h-.06l-.5.1-.41,0-.45-.06,0-.05,0-.1,0-.19,0-.12.08-.23,0-.12,0-.1-.15-.35,0-.15,0-.16.05-.07.06,0,.33-.1.1,0,0,0,0,0,.13-.17,0,0,.1-.06.19-.09.08-.06.06-.08,0,0v0l.06-.23v-.13l-.06-.12-.13-.14-.33-.23-.17-.1-.14,0-.52-.06-.12,0-.41-.16,0,0-.06,0h-.25l-.08,0,0,0,0-.06-.08-.14,0-.07,0-.08,0-.19v-.14l0-.21.06-.16.27-.27-.19-2.09v-.51l0-.07,0,0,0-.12-.1-.33-.46-1.12-.06-.33-.08-.21,0-.2v-.08l0,0,0-.1.23-.45v0l0-.06v-.06l0-.06,0-.06,0-.05-.06-.16,0-.1,0-.07,0-.06,0-.1.1-.1.43-.31.31-.19.37-.35.81-.62.21-.1.27-.07,1.07-.08,1.57.12.12,0,0,0,0-.06v-.08l0-.15-.13-.26,0-.11,0-.06v-.06l0-.75,0-.1,0-.06,0,0,0,0,0,0h-.31l-.41.16h-.08l-.06,0,0,0-.06,0,0,0-.06-.07,0-.06v-.06l0-.49,0-.13,0-.12,0-.11-.17-.39-.08-.21-.06-.24v-.17l0-.18,0-.19v-.08l0-.11L115,232v-.23l0-.14,0-.15.08-.16.14-.15.15-.14.45-.35h.29l.73.07.22,0,.5-.27,6.7-1,0,0,.25.25.12.1.21.23.24.18.77.42.08.06.29.33.12.22,0,.09,0,.39.06.1.06.07.93,1,.06.08,0,.06,0,.12.06.27,0,.27,0,.13,0,.12,0,0,0,.06.08.05.54.41.1.06.44.06h.16l1.72.39.14.07,0,0,.07.08.14.1.31.19.08.06,0,0,0,0,0,0v0l0,.06v.14l0,.11v.18l0,0v0l.06.1.06.1,0,.06,0,0h0l0,0,.06.08,0,0,0,.1,0,0,0,.05v0l0,0,.05.06.06.06,0,.08.06.19,1.34.77.35.16h0l.1,0,0,0,0,0,.08-.08.11,0,.78,0,.4.14.2.19.09.18.06.11,0,.1.08.31.11,1.44,0,.13v0l0,0,.08.12,3.58,3.64,1.3,1,.24.25.44.58,0,0Z"></path><path id="SYDR" class="cls-15" d="M98.42,241.72l.19-.29,1.4-1.3.79-.64.14-.19,0-.06v-.14l-.08-.62,0-.19,0-.12-.06-.08,0,0,0-.06,0-.08,0-.08.1-.09.1,0,.08,0,.46,0,.14,0,0,0,0,0,0,.05,0,0,0,.12,0,.06,0,0,0,0,.06,0,0,0,0,0,.06,0h0l0,0,0-.06V238l0-.18-.17-.56,0-.11-.12-.12-.12-.17-.13-.3h0l-.31-.47-.14-.29,0-.25.33-2,0,0,.18-.4.33-.55v-.07l0-.14-.14-.23-.08-.12,0-.06-.37-.29,0,0,0-.33.21-1.2.58.24.06.05.12.1.15.29.1.12.17.06h.51l.15,0,.16-.06.09,0,.18-.14.39-.34,0,0,2.12-.18.09,0,.41-.21,1.1-.37.26-.11.09-.26.16-.29,0-.09,0-.12v-.25l-.1-.35,0-.1,0-.15.11-.29.08-.1.08-.06.06,0,0,0,0,0,0,0,.22.37.13.17.06.06.06,0,.27.13,0,0,0,0,0,0,0,.06,0,0,0,.33v.05l0,.06,0,0,0,0,0,0,.06,0,.07,0,.49,0,.11,0,0,0,.08.08,0,0,0,0,.09.25,0,0,0,0,.27.17.08.08.06.08.12.05.69.2.2,0h.15l0,0,.08,0,0,0,0-.06,0,0V230l0-.33v-.06l0-.06.1-.14.8-.73.09-.06h0v0l1.3-.81.1-.08.13-.19.45-.31H116l.1.07.06.06,0,.06,0,.1,0,.09.12.39.06.1,0,.09.91,1.05,0,.06,0,.1,0,0,0,.06v.06l0,.5.06.33-.5.27-.22,0-.73-.07h-.29l-.45.35-.15.14-.14.15-.08.16,0,.15,0,.14V232l.06.16,0,.11v.08l0,.19,0,.18v.17l.06.24.08.21.17.39,0,.11,0,.12,0,.13,0,.49v.06l0,.06.06.07,0,0,.06,0,0,0,.06,0h.08l.41-.16h.31l0,0,0,0,0,0,0,.06,0,.1,0,.75v.06l0,.06,0,.11.13.26,0,.15v.08l0,.06,0,0-.12,0-1.57-.12-1.07.08-.27.07-.21.1-.81.62-.37.35-.31.19-.43.31-.1.1,0,.1,0,.06,0,.07,0,.1.06.16,0,.05,0,.06,0,.06v.06l0,.06v0l-.23.45,0,.1,0,0v.08l0,.2.08.21.06.33.46,1.12.1.33,0,.12,0,0,0,.07v.51l.19,2.09-.27.27-.06.16,0,.21v.14l0,.19,0,.08,0,.07.08.14,0,.06,0,0,.08,0h.25l.06,0,0,0,.41.16.12,0,.52.06.14,0,.17.1.33.23.13.14.06.12v.13l-.06.23v0l0,0-.06.08-.08.06-.19.09-.1.06,0,0-.13.17,0,0,0,0-.1,0-.33.1-.06,0-.05.07,0,.16,0,.15.15.35,0,.1,0,.12-.08.23,0,.12,0,.19,0,.1,0,.05.45.06.41,0,.5-.1h.06l.06,0,.05,0,.12.12.06.1.12.07.07,0,.06,0h.06l.44,0,.31.49,0,.19,0,0-.17.23-.16.33v.18l.14.19.35.43.27.4.06.16,0,.1,0,.27,0,.11-.2.62v.14l.07,1.51,0,.08-.09.89v.19l-1-.11-.45-.28-1.49-.13-.52-.18-.39-.21L110,253.63l-1.7-1.18-.85-.87-.29-.16-.14,0-.31.27-.13.06-.16,0-.27-.11-.18,0-1,.13h-.39l-.31,0-.1,0v-.13l-.15-.37-1.19-1.82-.25-.52,0-.59.08-.54-.13-.37-.62,0-.37.07-.29-.09-.24-.24-.23-.29.1,0,.08-.13,0-.22,0-.19-.1-.06h-.35l-.12,0-.46-.46-.25-.16-2.85-.66-.23-.31v0l-.12-.07-.14,0,.57-.84.44-.27.2-.11.17-.29.56-.82.14-.27,0-.17Z"></path><path id="SYDY" class="cls-16" d="M212.94,202.48h0L198,181l-4.36-6.24-.11-.19-.12-.29,0-.35.18-1.86,0-.31-.1-.29-1.67-3.59-.83-1.06-2.67-2.17,11.23-16.53.22-.44-.22-.1-.75-.52-.2-.06v-.35l.29-2,2.58-11.89,1.73-7.75.58,1.28,2,3.29,3.32,3.39,19.82,19.45.85.51.48.21,1.65.37,1,.35,2,.42,5.22.12,3,.43-1.24,1.88h0l-.25,1-.23,3.18-1.11,4-.25,2,0,.75.13,5.33.24,5.64-.06.85-.23.8L235.47,189l-1,2.11-.6.86-.77.5-6.49,1.76-3.88,2.35-2.94,1.78-2.93,1.76L214,201.86l-1,.62Z"></path><path id="SYQU" class="cls-17" d="M98.32,226.33l1.11.59.27.17v.06l0,.06-.14.15-.09.18,0,.05,0,.08,0,.19,0,.18v.27l0,.06,0,.11.17.37.06.08.06,0,0,0,0,0,0-.11,0-.12v0l0,0v0l0,0,0,0,.1,0,.06,0h.08l.6.11.31,0,.34,0,.1.06.06.06,0,.06V229l0,.25,0,.49,0,.15,0,.21-.21,1.2,0,.33,0,0,.37.29,0,.06.08.12.14.23,0,.14v.07l-.33.55-.18.4,0,0-.33,2,0,.25.14.29.31.47h0l.13.3.12.17.12.12,0,.11.17.56,0,.18v.11l0,.06,0,0h0l-.06,0,0,0,0,0-.06,0,0,0,0,0,0-.06,0-.12,0,0,0-.05,0,0,0,0-.14,0-.46,0-.08,0-.1,0-.1.09,0,.08,0,.08,0,.06,0,0,.06.08,0,.12,0,.19.08.62v.14l0,.06-.14.19-.79.64-1.4,1.3-.19.29v0l.37-1.38.79-1.53.56-.58.31-.66-.67-.56-.55-.21L98.88,234l.12-.82.58-.07h.33v-.22h-.15l-.1-.13,0-.12.08-.11.13-.08.16-.08.11-.08,0-.11v-.86l-.09-.17,0-.17-.16-.1-.09,0-.16.12h-.06l-.09-.06-.06-.18v-.15l.17-.18v-.11l-.09-.18-.29-.37-.22-.32-.13-.37-.18-1,0-.12-.07-.09-.14-.12h-.27l-.25,0-.16,0,0-.11.06-.06.12-.08.19-.08.17-.13.14-.27,0-.31-.06-.28,0,0Z"></path><path id="SYHM" class="cls-18" d="M163.4,160.29l0,.56-.08,3.62-.13.53-.28.67-.25.47-.66,1-.09.21-.12.35-.08.27,0,.27v.27l.14,1.09-.08.15-.19.18-3.49,1.55-.44.33-.72.67-.12.14v.08l0,.27V173l0,.06,0,0-.16.22,0,.06-.13.31-.14.25,0,.06,0,0v.06l0,.27v.14l0,.13,0,.06,0,.06,0,.06,0,0,0,.09,0,.06,0,.12,0,.1,0,.05-.48.55-.06,0-.19.08-.08,0-.08,0-.15-.13-1-1.34-.23-.35-.18-.19L152,172.69l-.06,0-.08-.06-.23-.21-.1-.14v0l0-.06-.1-.42,0-.35,0-.18-.12-.46v0l0,0-.14-.15,0,0,0-.06,0-.1,0,0,0-.12-.08-.14-.12-.15,0,0-.09-.06,0,0-.12,0-.54,0-.14,0-.09,0-.12,0-.08-.06,0,0-.31-.37-.15-.13-.17-.12-.06,0-.08,0h-.12l-2.19.52-1.22.45-.36.08h-.35l-.16,0L144,170l-.82.58-.52.28-.17.13-.12.12,0,0,0,0-.1.21,0,.11-.06.45v.83l0,.14.13.39,0,.11v.14l0,.06,0,.05,0,.08v0l0,0,0,0-.08,0h-.1l-.21,0-.12,0,0,0-.1-.13-.23-.41,0,0-.06,0-.1,0-.13,0-.31,0-.2,0h-.15l-.35.05h-.15l-.1,0-.12.06-.23.18-.17,0-.2.06-.21,0-.21-.06-.28-.19,0,0-.06,0-.08,0-.1.06-.13.17,0,.12,0,.1v.13l-.06,0-.08,0-.42-.12h-.27l-.08,0-.06,0-.1.06-.05.12,0,.07-.06.28,0,0,0,0-.19.2,0,0,0,0,0,.06-.1.41,0,.12,0,0,0,.06-.14.16-.17.11-.08,0h-.1l-.33-.07-.21-.12-.1-.06,0,0,0-.08-.1-.19-.12-.27,0,0,0,0-.07-.08-.08-.05-.1-.06-.11,0h-.2l-.15.06-.62.4-.16.16-.09.12,0,.17,0,.06h-.06l-.21-.12-.22-.08,0,0-.07-.06-.16-.1,0,0-.05,0h-.2l-.08,0-.09.08-.29.39-.08,0-.14,0-.44,0-.23.08-.18.12-1.32,1.06-.15.08-.54.19-.66-1.47-.82-1.61,0-.06-.13-.17-.39-.33-.35-.12-.27,0-.15,0-.18.06-.39.27-.11,0-.12,0h-.25l-.17,0-.16.08-.35.33-.09,0-.84.05-.09,0h-.26l-.23.06H122l0,0-.25.1-2.08,1.07-1.3-.06-.6.15-.31.2-.11,0-.06,0-.12,0-.15,0-.25-.12-.08-.08-.06-.07v-.22l0-.06,0,0-.06,0,0,0-.06,0h-.06l-.19,0,0,0,0,0,0-.06v-.06l0-.05,0-.06.09-.12.06-.09,0-.06,0-.06v-.06l0-.06,0-.06,0,0,0,0-.09-.06-.1,0h-.19l-.24.06,0,0,0,0,0,0-.21.29-.22.35-.66.71v.27l0,.2,0,.09,0,.1-.15.18,0,.11,0,.1V177l0,.08-.21.23-.06.08-.13,0-.1,0-.79-.19-.2-.31-.08-.06-.09-.06-.2,0h-.09l-.08,0L112,177l-.31.42-.08.08,0,0,0,0-.12-.08-.12-.13L111,177l-.11-.12-.08-.07h-.06l-.06,0-.06,0,0-.06,0-.08.18-.21,0-.06.07,0,0-.1-.17-.31-.1-.21-.11-.15-.68-.49-.12-.09,0-.1-.07-.21-.12-.45-.15-.39-.16-.08-.23-.05-1,.09-.42,0-1.24-.25-.2-.85.29-.17.25,0,.26.05H107l.1,0,.1,0,.15-.14.1,0,.11,0,.24,0,.11,0,.16-.14.11,0,.37,0,.1-.06.17-.21.1-.08.19-.13.08-.12.1-.19.21-.74v-.5l-.31-3.82,0-.62-.06-1.26-.69-3.27-.43-1.26-.17-.62,0-.14.52-3.58.1-2.17-.08-1-.06-.37-.08-.21-.09-.19-.31-.43,0-.1,0-.13.07-.18.26-.27.4-.29.08-.13,0-.22.06-.81.11-.29.43-.37.12.21.05.08.12.1.1.06.21.07.19,0,.35,0,.31-.09.1-.06.1,0,.11,0h.12l.1.06.09.08.16.17.08.16,0,.13,0,.1,0,.11.06.1.35.12,1.16,0,.2.11,0,.41-.17,1.43-.37,1.77-.06.58.24,2.19-.06.17-.06.14,0,.07,0,.1v0l.58,1.3.14.56.17.19.57.18.93-.47.11,0,.18.08.46.23.1.06.06.08.09.19.08.22,0,.09.06.1.06.08.09.06.1,0,.13,0,.28,0,.5,0,.25,0,1.78.51,1.36,0,3.2-.88h.23l.12,0,.09,0,.8.72.09.19,0,.1.12.19.08.08.07.06.29.19.06.08.06.08.06.09.11,0h.16l.27-.06H127l.18-.06.15-.12.47-.72.58-.56.1-.11.21-.41.08-.1.08,0,.13,0,.1.06.06.08.05.09,0,.1,0,.12,0,.11,0,.26v.13l0,.12,0,.13-.25.55,0,.11V161l.1.47,0,.12v.4l0,.1,0,.1.08.07.1.06.12,0,.11,0h.25l.6-.08.55,0,.13,0,.16-.06.11-.06.08-.07.23-.37.14-.19.1-.08.07-.06.1,0,.12,0,.11,0,.12,0,.1,0h.09l0-.1,0-1.35,0-.24,0-.11,0-.08-.07-.08-.1-.06h-.21l-.08.06-.06.08-.08.08-.15.33-.06.07-.08.08-.09.06-.1,0h-.14l-.11,0-.12,0-.08-.06-.07-.07,0-.12v-.12l0-.13.06-.24.52-1.1.13-.25.16-.16.33-.21.56-.23.17-.12.16-.21.66-1.16.29-.68.08-.16.07-.09.49-.29,2.27.79.94.64.24.12.19,0,1.53,0,4.36-.31.5.35,0,0,1.75,1.22.44.21,1.2.35,2.23.33,11.3,0,1,.8.31.33.41.62Z"></path><path id="SYDI" class="cls-19" d="M110.86,222l-.51-.08-1.6-.82-.6.39-.14-.31.56-.6-.62-.31-.42.06-.2-.58,1-.56.79,0,1.48-.43.73.06.43.58,0,.35.06.58-.26.7-.6.62-.09.39Z"></path></g></g></g></svg></g></g></svg>