<svg id="Layer_1" data-name="Layer 1" xmlns="http://www.w3.org/2000/svg" viewBox="0 0 500 500" role="img" aria-labelledby="opensyria-logo-title" fill="var(--opensyria-logo-foreground,currentColor)"><title id="opensyria-logo-title">OpenSyria logo</title><defs><linearGradient id="opensyria-map-gradient" x1="186.32" y1="233.21" x2="362.37" y2="233.21" gradientUnits="userSpaceOnUse"><stop offset="0" stop-color="var(--opensyria-logo-map-gradient-start,#007156)" /><stop offset="1" stop-color="var(--opensyria-logo-map-gradient-end,#000)" /></linearGradient><style>.cls-1{fill:var(--opensyria-logo-foreground,currentColor);}.cls-2,.cls-3,.cls-4,.cls-5,.cls-20,.cls-21,.cls-22,.cls-23,.cls-24,.cls-25,.cls-26,.cls-27,.cls-28,.cls-29,.cls-30,.cls-31,.cls-32,.cls-33,.cls-34,.cls-35,.cls-36,.cls-37{fill:var(--opensyria-logo-primary,currentColor);}.cls-6,.cls-7,.cls-8,.cls-9,.cls-10,.cls-11,.cls-12,.cls-13,.cls-14,.cls-15,.cls-16,.cls-17,.cls-18,.cls-19{fill:url(#opensyria-map-gradient);}.cls-37{fill:var(--opensyria-logo-primary,currentColor);}</style></defs><path class="cls-1" d="M144.49,282.31H98.28a7.4,7.4,0,1,0,0,14.79h46.21a7.4,7.4,0,0,0,0-14.79Z" /><path class="cls-1" d="M156.81,312.53H98.28a7.4,7.4,0,1,0,0,14.79h58.53a7.4,7.4,0,0,0,0-14.79Z" /><path class="cls-1" d="M169.13,342.75H98.28a7.4,7.4,0,1,0,0,14.79h70.85a7.4,7.4,0,1,0,0-14.79Z" /><circle class="cls-2" cx="168.55" cy="289.7" r="7.39" /><path class="cls-3" d="M426.89,205.28A168,168,0,1,0,100.35,261h28.86a141.11,141.11,0,1,1,250.16,17.78l25.17,10.3A167.17,167.17,0,0,0,426.89,205.28Z" /><path class="cls-1" d="M379.37,278.75A141.28,141.28,0,0,1,234.65,344.3v27.23a168.12,168.12,0,0,0,169.89-82.48Z" /><circle class="cls-4" cx="182.41" cy="319.92" r="7.39" /><circle class="cls-5" cx="194.4" cy="350.15" r="7.39" /><g id="features"><path id="SYHI" class="cls-6" d="M254.65,269.68v0L243.88,261l-.81-.51-.66-.54-.18-.1-.25-.11,0,0-.05,0-.45-.08-.25-.09-1-.26-.41-.17-.27-.19-.73-.43L237,257.1l-1.78-2.42-.15-.42-.1-.2-.14-.42,0-.06,0-.08,0-.19-.25-.62-.16-.27L231.73,250l-.25-.19-.44-.29-2.14-2.13-.4-.27-.18-.16L227,244.72l0,0-.08-.14-.17-.41,0-.06,0-.05,0-.06,0,0-.16-.12-.52-.17-.52.06h-.29l-.12,0-.27-.1-2.58-1.51h0L222,242l-.29-.21-.91-.83-.12-.22-.08-.09,0,0-.12-.1,0,0-.08-.13,0-.1,0-.08-.26-.44,0-.1-.2-.31,0,0-.15-.29-.41-.62L219,238l-.16-.21-.46-.49-.39-.6-.37-.36-.6-.74-.08-.12,0-.06-.33-.48-.15-.14h-.12l-.21,0-.79.26-.93.52-.06,0H214l-1.87-.25-.47-.27-.14,0h-.62l-.42.09-.64.37-.1,0-.44.14-.14-.31-.64-.64-.17-.47-.14-.6.22-.41.25-.34,0-.28,0-.15-.14-.25-.17,0-.2,0-.19-.08-.29-.31-.56-.81-.14-.25-.08-.26,0-.27.08-.15.1-.16.05-.23.1-.52,0-.35-.14-.29-.42-.29-.2,0-.19-.11-.37-.49-.46-.19-.35-.29-.27-.43-.16-.54-.29-.1-.08,0h-.23l-.11,0-.26,0h-.5l-.06,0H203l-.52.15-.08,0h-.13l-.08,0-.08-.13-.25-.51.06-.08,0,0,.33-.36.73-.39.51-.41.13-.52,0-.47.06-.38.39-.26v0l.39.1.29.23.05,0,.14-.11.1-1-.64.21-.66,0-.62-.23-.54-.46-.62-1.15-.2-.13-.19-.14-.56.39-.08.25,0,.64-.1.29-.25.25-.19.1-.06,0-1.61.08-.15-.06-.31-.23-.06,0-.08,0-.15,0-.18.11-.15.08-.12,0-1.14-.08v0l0-.11,0-.22,0-.64.06-.21,1.8-3.27.62-.86,0,0,0,0,0,0,.17,0,.1-.08.12-.1.4-.54.7-.6.08-.1.06-.09v-.29l-.06-.31v-.12l0-.14.06-.29,0-.13,0-.08.06-.08,0,0,.1,0,.19-.1.49-.16.17.31,0,.1-.08,0,0,.06-.17.21,0,.08,0,.06.06,0,0,0h.06l.08.07.12.12.23.37.12.13.11.08.06,0,0,0,.08-.08.31-.42,0-.08.08,0h.1l.19,0,.1.06.08.06.19.31.79.19.1,0,.14-.06.06-.07.21-.24,0-.07V214l0-.1,0-.12.16-.17,0-.1,0-.09,0-.2v-.27l.66-.72.21-.34.21-.29,0,0,0,0,.06,0,.23-.06h.2l.09,0,.1.06,0,0,0,0,0,.06,0,.06v.06l0,.06,0,0-.06.1-.1.12,0,.06,0,.05v.06l0,.06,0,0,0,0,.19,0h.06l.06,0,0,0,.06,0,0,0,0,.06v.21l0,.08.08.08.25.12.16,0h.17l.12,0,.31-.2.6-.15,1.3.06,2.07-1.07.25-.1,0,0h.18l.23-.06h.25l.1,0,.83-.05.1,0,.35-.33.15-.08.17,0h.26l.11,0,.12,0,.39-.27.17-.06.16,0,.27,0,.35.12.38.33.14.17,0,.06.81,1.61.66,1.47.54-.19.16-.08,1.32-1.06.17-.12.23-.08.45,0,.13,0,.08,0,.29-.39.1-.08.08,0h.19l.06,0,0,0,.15.1.08.06,0,0,.21.08.21.12h.06l0-.06,0-.17.1-.12.15-.16.62-.4.16-.06H225l.12,0,.09.06.08.05.08.08,0,0,0,0,.11.27.1.19.06.08,0,0,.09.06.22.11.33.08h.09l.08,0,.17-.11.14-.16,0-.06,0,0,0-.11.09-.41,0-.06,0,0,0,0,.19-.2,0,0,0,0,.06-.27,0-.07.06-.12.09-.06.06,0,.08,0h.27l.43.12.08,0,0,0v-.13l0-.1,0-.12.14-.17.09-.06.08,0,.06,0,0,0,.27.19.21.06.22,0,.19-.06.17-.06.24-.17.11-.06.1,0h.15l.35-.06h.16l.19,0,.31,0,.14,0,.09,0,.06,0,0,0,.23.41.1.13.06,0,.12,0,.21,0h.1l.07,0,0,0,0,0,0,0,0-.08,0-.05,0-.06v-.14l0-.11-.14-.39,0-.14v-.83l.06-.45,0-.11.1-.22,0,0,0,0,.12-.12.18-.13.52-.28.81-.58.18-.09.15,0h.35l.37-.08,1.22-.45,2.19-.52h.11l.08,0,.06,0,.17.12.16.13.31.37,0,0,.08.06.11,0,.1,0,.13,0,.55,0,.11,0,0,0,.1.06,0,0,.11.15.08.14.06.11,0,.06,0,.1,0,.06,0,0,.13.15,0,0,0,0,.12.46,0,.18,0,.35.1.42,0,.06,0,0,.1.14.23.21.08.06,0,0,1.5,1.24.17.19.23.35,1,1.34.15.13.08,0,.08,0,.19-.08.06,0,.49-.55,0-.06,0-.09,0-.12,0-.06,0-.09,0,0,0-.06,0-.06,0-.06,0-.13v-.14l0-.27v-.06l0-.06,0,0,.13-.26.14-.31,0,0,.15-.22,0,0,0-.05,0-.06,0-.27v-.08l.11-.14.72-.67.45-.33,3.48-1.55.2-.18.08-.15-.14-1.09v-.27l0-.27.08-.27.11-.35.1-.21.66-1,.25-.47.27-.68.14-.52.07-3.62,0-.56,2.34-.27,7.79.6,14.76,4,2.67,2.17.84,1.06,1.66,3.59.1.29,0,.31-.17,1.86,0,.35.11.29.12.19,4.36,6.24,14.92,21.5v0l-1.9,1.15L299,242.69l-2.92,1.76-2.93,1.77L290.22,248l-2.92,1.76-2.93,1.76-2.92,1.77L278.52,255l-2.94,1.76-2.93,1.77-2.92,1.74-2.93,1.76-6.47,4-5.68,3.59Z" /><path id="SYTA" class="cls-7" d="M196.34,221.9l-.49,0-.17,0h0l-.27.06h-.1L195,222l-.21,0h-.39l0,0h0l-.06,0-.07,0-.12,0-.27-.07-.41-.33-.06,0-.19-.1h0l-.1,0-.11,0-.35,0-.1-.6-.48-1-.18-.87-.27-.46-.06-.29v-1.32l-.07-.2-.47-.81-.1-.31-.13-.68-.85-2.3.15-.1,0-.15.16-.2,0-.23,0-.21-.16-.22v-.23l.14-.13v0l-.06,0-.08-.24.21-.46.16-.23.19-.22.16-.48-.1-.48-.15-.43-.1-.37v-1.55l.17-.39,1.24-1.91.57-.57-.24-.87-.6-1.2,0,0,1.13.37.4.27.78.66.17.06,4-.33.1,0,.19-.1.37-.23.35,0,1,.5,0,.62.31,3.82v.5l-.22.74-.09.19-.08.12-.2.13-.09.08-.18.21-.09.06-.37,0-.12,0-.15.14-.12,0-.23,0-.12,0-.09,0-.16.14-.1,0-.09,0h-.12l-.25-.05h-.25l-.29.18.19.85,1.24.25.43,0,1-.09.24.05.15.08.16.39.11.44.08.22,0,.09.11.1.68.49.12.15.1.21-.49.16-.19.1-.1,0,0,0-.06.08,0,.08,0,.13-.06.29,0,.14v.12l.06.31v.29l-.06.09-.08.1-.7.6-.4.54-.12.1-.1.08-.17,0,0,0,0,0,0,0-.62.86-1.8,3.27-.06.21,0,.64,0,.22,0,.11v0Z" /><path id="SYRD" class="cls-8" d="M254.65,269.68l-2.24,1.41-4.6,2.91-3.37,2.17-4.55,2.92L235.36,282l-2.43,1.57v0l-.45-.58-.23-.25-1.3-.95-3.59-3.65-.07-.11,0,0v0l0-.14-.12-1.43-.07-.31,0-.1-.06-.11-.1-.18-.19-.19-.41-.14-.77,0-.12,0-.08.08,0,0,0,0-.09,0H225l-.35-.16-1.34-.77-.05-.2,0-.07-.06-.06-.06-.06,0,0v0l0,0,0,0,0-.1,0,0-.06-.08-.06,0v0l0,0,0-.06,0-.1-.06-.1v0l0,0v-.18l0-.11V273l0-.06v0l0-.05,0,0,0,0-.08-.06-.31-.19-.13-.1-.08-.08,0,0-.13-.08-1.73-.38h-.15l-.45-.06-.1-.06-.54-.41-.08,0,0-.06v0l0-.12,0-.13,0-.27-.06-.28,0-.11,0-.06-.06-.08-.93-.95-.05-.07-.06-.1-.06-.39,0-.1-.12-.21-.29-.33-.07-.06-.78-.42-.23-.18-.21-.23-.12-.1-.25-.25,0,0-6.7,1-.06-.33,0-.5v-.06l0-.06,0-.06,0-.09,0-.06-.91-1,0-.09-.06-.1-.11-.39,0-.09,0-.1,0-.06-.06-.06-.09-.08h-.2l-.44.31-.14.2-.1.08-1.29.81v0h0l-.1.06-.79.73-.1.14,0,.06V267l0,.32v.08l0,0,0,.06,0,0-.07,0,0,0h-.16l-.19,0-.7-.2-.12-.05-.05-.08-.08-.08-.27-.17,0,0,0,0-.1-.25,0,0,0,0-.07-.08,0,0-.12,0-.48-.05-.08,0-.06,0,0,0,0,0v0l0-.06v-.06l0-.32,0,0,0-.06,0,0,0,0,0,0-.27-.13-.06,0-.05-.06-.14-.17-.21-.37,0,0,0,0,0,0-.06,0-.08.06-.07.1-.12.29,0,.15,0,.1.1.35,0,.11,0,.08v.06l0,.12,0,.09-.15.29-.1.25-.25.12-1.11.37-.4.21-.1,0-2.11.18h0l-.39.35-.17.14-.1,0-.15.06-.16,0h-.5l-.18-.06-.09-.12-.16-.29-.12-.1,0-.05-.58-.24,0-.21,0-.16,0-.48,0-.25V266l0-.06,0-.06-.1-.06-.35,0-.31,0-.6-.11h-.08l-.06,0-.09,0,0,0,0,0,0,0,0,0v0l0,.12,0,.11,0,0v0l-.06,0-.06-.08-.18-.37v-.11l0-.06v-.27l0-.18,0-.19,0-.08,0-.06.1-.17.13-.15,0-.06v-.06l-.27-.18-1.1-.58-.22-.52-.13-.39v-.42l.13-.43.28-.33.42-.33.23-.25.08-.29,0-.16-.06-.33.49-.29.81-.69.43-1-.35-.64.29-.43.62-.19h.62l.5-.23.57-.35.4-.49.08-.6-.23-.34-.45-.33-.48-.26-.39-.09-.6-.35-.6-.12-.35-.21.12-.68.09-.12.35-.13.12-.12.08-.31-.08-.58,0-.25.19-.29.48-.45.16-.36.37-.55.87-.75.37-.68.25-.35.43-.17.11,0,.39-.1.45-.21.94-.58.18.09.08.1.27.33.21.13h.54l.06,0,.37-.24.37-.29.4-.15.39.07.08,0,1.36.66,1,.25.51-.09.23-.31.08-.1,0-.66-.47-.29-1-.17-.8-.6-.15-.2-.18-.31-.06-.11.59-1.17.34-.56.43-.52,1.05-.93.89-1.12.56-.28.29,0,0,0,.54.2h.12l.23,0,.45-.22.13-.29.06-.38.16-.45.52-.66,1.18-1,.6-1,.76-.82,0,0,.44-.14.1,0,.64-.37.42-.09h.62l.14,0,.47.27,1.87.25h.24l.06,0,.93-.52.79-.26.21,0h.12l.15.14.33.48,0,.06.08.12.6.74.37.36.39.6.46.49.16.21.17.35.41.62.15.29,0,0,.2.31,0,.1.26.44,0,.08,0,.1.08.13,0,0,.12.1,0,0,.08.09.12.22.91.83.29.21.15.1h0l2.58,1.51.27.1.12,0h.29l.52-.06.52.17.16.12,0,0,0,.06,0,.05,0,.06.17.41.08.13,0,0,1.37,2.27.18.16.4.27,2.14,2.13.44.29.25.19,2.58,2.39.16.27.25.62,0,.19,0,.08,0,.06.14.42.1.2.15.42L237,257.1l1.81,1.4.73.43.27.19.41.17,1,.26.25.09.45.08.05,0,0,0,.25.11.18.1.66.54.81.51,10.77,8.64v0Zm-52.91-10.44.1-.39.6-.62.25-.7-.06-.58,0-.35-.42-.58-.74-.06-1.47.43-.8,0-1,.56.19.58.43-.06.62.31-.57.6.14.31.6-.39,1.61.82.5.08Z" /><path id="SYHA" class="cls-9" d="M333.87,192.05l-3-.43-5.21-.12-2-.42-.95-.35-1.64-.37-.49-.21-.85-.51-19.82-19.45-3.31-3.39-2-3.29-.58-1.28,0-.43,0-.13,0-.1-.17-.27-.29-.29-1.65-.95-2.42-1-.14,0-.13,0-.12,0-.09,0-.43.16-.21.05-.49.06-.29,0-.27-.08-.21-.09-.37-.33-1.34-1.73-.23-.54-.62-1.86L293,153l5.68-2.15,2.64-1.58.94-.31,1-.2,1-.46,1.9-1.28,3.51-2.35.52-.34.56-.22.58-.11.6,0,1.22-.35,3.55-2,1.3-.5,5-.74,6.31,1.28,1.18.49.59.15,7.36-.35,11-2.61,3-.7,1.15-.72,2-1.88,1.34-1.76.39-.23.48-.39.29.37,0,.38,0,.33,0,.14.37.08.79.38.16-.07.17-.18.18-.15.15.06.12.17.14.33.11.17.89.74.2.1.17.4-.48,1.86.31.43.21.19,0,.49,0,.93.17.39.2.34.15.37v.49l-.81.64-1.71,1.6v0l-2.73,2.93-5.29,5.68-3.56,3.81-.7.6-.74.35-8.21,1.77-1.71.27-.79.36-.52.74L333,165.81l-.21.87-.85,8.24v.54l.11.56.68,1.61,2,4.46.3,1,.13,1.09.1,4.47-.14,1-.42,1-.9,1.36Z" /><path id="SYRA" class="cls-10" d="M263.12,153l.76.81,1.62.85,1.86.24,4.3-.2.59-.17,1.37-.1,4.07,1.38,1.43-.06,5.35-1,.62,1.86.23.54,1.34,1.73.37.33.21.09.27.08.29,0,.49-.06.21-.05.43-.16.09,0,.12,0,.14,0,.13,0,2.42,1,1.65.95.29.29.17.27,0,.1,0,.13,0,.43L292.34,170l-2.58,11.89-.29,2v.35l.19.06.76.52.21.1-.21.44-11.24,16.53-14.76-4-7.79-.6-2.34.27-.41-.62-.31-.33-1-.8-5.09-5.42-.39-.51-.06-.11-.06-.16-.06-.21v-.31l.15-1.16.68-3,.73-1.82.24-.39.13-.17.08-.08,1-1.47.52-.52.14-.18.05-.09.2-.47.11-.39,0-.07.06-.16,0-.15,0-.35,0-.18-.1-.15-1-.89,0,0-.35-.58-.35-.47-.37-.39-.25-.33-.23-.46-.33-1-.1-.52,0-.41,0-.23.06-.23.1-.24.58-.89.33-.77.25-.47.27-.4.29-.31.16-.12.44-.25,1.09-.56.73-.18,1,0,4.38-.73,2.15-1.21,1.74-1.22.31-.31.26-.25,1-1.53.31-.66.18-.56.19-1.12v0l.21-1,.12-.93,0-2.21,0-.14,0-.09,0-.12-.08-.08-.07-.07-.12,0-.12,0-.11,0-.18.09-.64.57-.27.19-.21.08H262l-.1,0-.08-.08-.09-.17-.08-.28-.14-.58,0-.27,0-.19.1-.06.1,0,1.33-.17.14-.08.12-.14.15-.29.06-.19v-.29l-.35-1.49Z" /><path id="SYHL" class="cls-11" d="M263.12,153l.35,1.49v.29l-.06.19-.15.29-.12.14-.14.08-1.33.17-.1,0-.1.06,0,.19,0,.27.14.58.08.28.09.17.08.08.1,0h.23l.21-.08.27-.19.64-.57.18-.09.11,0,.12,0,.12,0,.07.07.08.08,0,.12,0,.09,0,.14,0,2.21-.12.93-.21,1v0l-.19,1.12-.18.56-.31.66-1,1.53-.26.25-.31.31-1.74,1.22-2.15,1.21-4.38.73-1,0-.73.18-1.09.56-.44.25-.16.12-.29.31-.27.4-.25.47-.33.77-.58.89-.1.24-.06.23,0,.23,0,.41.1.52.33,1,.23.46.25.33.37.39.35.47.35.58,0,0,1,.89.1.15,0,.18,0,.35,0,.15-.06.16,0,.07-.11.39-.2.47-.05.09-.14.18-.52.52-1,1.47-.08.08-.13.17-.24.39-.73,1.82-.68,3-.15,1.16v.31l.06.21.06.16.06.11.39.51,5.09,5.42-11.29,0-2.23-.33-1.2-.35-.45-.21-1.74-1.22,0,0-.5-.35-4.36.31-1.53,0-.2-.06-.23-.11-1-.64-2.27-.8-1.1-.44-.14-.1-.38-.4-.18-.12-.13-.08-.24-.08-.13-.07-.84-1-.13-.21-.1-.59-.08-.21-.17-.25-.23-.48-.39-1.23.14-.23.15-.13.31-.14.08-.06.17-.13.12-.14.1-.11.09-.2,0-.11,0-.14v-.14l0-.11-.08-.14-.13-.13-.78-.55-.52-.52-.33-.21-.41-.06-.13,0-.1,0-.17-.19-.22-.31-1.33-2.42-1.42-2.1,0-.11,0-.14v-.27l-.05-1,0-.25-.06-.21-.16-.16-.25-.17-2.23-1-.23-.13-.23-.23-.25-.28-.2-.38-.54-.74.33-.54.87-.74.16-.15.11-.2.14-.15.06,0,0,0,.27-.15.08-.08.19-.27.52-.53.14-.17.11-.21,0-.12,0-.14,0-.17-.09-.21-.7-.89-.82-.78-.13-.29-.06-.5,0-.12,0-.1-.06-.07-.09-.08-.14,0-.17,0-.56.42-.14.06-.85,0-.91.2-.33.19v0l-.31-.35-.43-.17-.87-.1-.27-.25.12,0,.15-.29.16-.49v-.29l0-.25L209,165l-.12-.21-.13-.1-.43-.19-.17-.16-.14-.25-.5-1.78-.08-.55.12-.5.79-1.26.12-1.43,0-1.46.36-1.39.31-.78.1-.65,0-.64.12-.72.33-.66.42-.58.29-.64-.07-.81.23,0,.25,0,0,0,4.86,1.68,1.67.12.52.11.52.22.51.29.4.38.8.74.21.43,0,.69-.23,1,.12.39.48.44.52.29.25-.07.22-.31.4-.41.49-.23.44,0,.43.13.5.06,1.69-.43.58,0,4.3.79,1.11,0,2-1.3,1.88-1.22,1.61-.72,4.4-1,4.24-1.95.74-.2L247,150l2.56-1.62,1.78-.7.89-.1,1.75.22,5,1.53,1.3.71,2.81,3Z" /><path id="SYID" class="cls-12" d="M197.48,183.25l.06,0,.29-.95L198,180l.58-.95.86-.31.64.17.42-.1.22-1.16h0l.52-.21,1,.4.57-.19-.08-.93.08-4.73.05-.48.16-.25.21-.22,0-.29-.39-.44.31-.31.33.4.33.24.37.11.74.1.15.06h.14l.23-.1.12-.19,0-.23.09-.22.31-.09.49-.08,2,.31h.51l1.87-.35.16-.27,0-.76-.1-.46-.19-.53-.25-.5.33-.19.91-.2.85,0,.14-.06.56-.42.17,0,.14,0,.09.08.06.07,0,.1,0,.12.06.5.13.29.82.78.7.89.09.21,0,.17,0,.14,0,.12-.11.21-.14.17-.52.53-.19.27-.08.08-.27.15,0,0-.06,0-.14.15-.11.2-.16.15-.87.74-.33.54.54.74.2.38.25.28.23.23.23.13,2.23,1,.25.17.16.16.06.21,0,.25.05,1v.27l0,.14,0,.11,1.42,2.1,1.33,2.42.22.31.17.19.1,0,.13,0,.41.06.33.21.52.52.78.55.13.13.08.14,0,.11v.14l0,.14,0,.11-.09.2-.1.11-.12.14-.17.13-.08.06-.31.14-.15.13-.14.23.39,1.23.23.48.17.25.08.21.1.59.13.21.84,1,.13.07.24.08.13.08.18.12.38.4.14.1,1.1.44-.48.3-.08.09-.08.16-.29.68-.66,1.16-.15.21-.17.12-.57.23-.33.21-.15.16-.14.25-.52,1.1-.06.24,0,.13v.12l0,.11.08.08.08.06.11,0,.12,0h.13l.1,0,.1-.06.08-.08.05-.07.16-.33.08-.08.05-.08.08-.06.12,0,.1,0,.09.06.08.08,0,.08,0,.11,0,.24,0,1.35,0,.1h-.1l-.1,0-.11,0-.12,0-.11,0-.1,0-.08.06-.1.07-.13.2-.23.37-.08.07-.12.06-.15.06-.14,0-.54,0-.6.08h-.25l-.12,0-.12,0-.09-.06-.08-.08-.06-.09,0-.1v-.41l0-.11-.09-.47v-.25l0-.11.25-.55,0-.13,0-.12V197l0-.26,0-.11,0-.12,0-.1-.06-.09-.06-.08-.09-.06-.14,0-.08,0-.07.1-.22.41-.09.11-.59.56-.46.72-.16.12-.17,0-.19,0-.28.06h-.15l-.12,0-.05-.09-.06-.08-.06-.08-.29-.19-.08-.06-.08-.08-.11-.19,0-.1-.1-.19-.79-.72-.1,0-.12,0h-.23l-3.2.88-1.35,0-1.78-.51-.26,0-.5,0-.27,0-.14,0-.09,0-.1-.06-.06-.08-.06-.1,0-.09-.08-.22-.1-.19-.06-.08-.09-.06-.47-.23-.17-.08-.12,0-.93.47-.56-.18-.18-.19-.13-.56-.58-1.3v0l0-.1,0-.07.06-.14.06-.17-.23-2.19.06-.58.36-1.77.18-1.43,0-.41-.19-.11-1.17,0-.34-.12-.06-.1,0-.11,0-.1,0-.13-.08-.16-.15-.17-.1-.08-.1-.06h-.11l-.12,0-.1,0-.09.06-.31.09-.35,0-.19,0-.22-.08-.09-.05-.12-.1-.06-.08-.12-.21.66-.47.2-.25,0-.13v-.14l0-.12-.1-.13-.12-.06-.11,0-1.8.08-.24.06-.21.08-.15,0H198l-.39,0-.19-.07-.1-.1,0-.1v-.11l0-.14,0-.11,0-.08.06-.2,0,0,0-.12Z" /><path id="SYLA" class="cls-13" d="M197.48,183.25l0,.12,0,0-.06.2,0,.08,0,.11,0,.14V184l0,.1.1.1.19.07.39,0h.2l.15,0,.21-.08.24-.06,1.8-.08.11,0,.12.06.1.13,0,.12v.14l0,.13-.2.25-.66.47-.42.37-.12.29-.06.81,0,.21-.08.14-.41.29-.25.27-.08.18,0,.13,0,.1.31.43.1.19.08.21.05.37.08,1-.1,2.17-.52,3.58,0,.14.17.62.43,1.26.7,3.27.06,1.26-1-.5-.35,0-.37.23-.19.1-.1,0-4,.33-.17-.06-.78-.66-.4-.27-1.13-.37,0,0-.4-.85.34-1.09-.11-.54-.2-2.11.06-.47-.27-.27-1.28-1.72-.54-.27-.27-.2-.1-.33-.21-.17-.43.06-.4.15-.14.08-.29-.14,0-.36.13-.45,0-.39-.15-.17-.93-.5.06-.16,0-.33.08-.17h-.17l-.35.19v-.19l.52-.2.53-.33.4-.48.16-.58-.06-.35-.23-.45-.06-.4.13-.24.62-.21,1-2,0-.17v-.76l-.12-.63-.27-.76-.37-.72-.34-.46,1.27.08.64-.16.27-.48.12-.64.68-1,.25.08.52-.1.55-.19.5-.08.35.37v.42l-.08.43.06.39.31.27.41.1.83,0,.77.36,1.55,1.13.45-.08Z" /><path id="SYSU" class="cls-14" d="M232.93,283.59l-2.11,1.34-4.53,2.92-2.93,1.88-4.05,2.65-4.26,2.91-.35.14-.36,0-1.69-.45-.58,0-.45.27-1-.73L207,294v-.19l.1-.89,0-.08-.08-1.51,0-.14.19-.62,0-.11,0-.28,0-.09-.05-.16-.28-.4-.34-.43-.14-.19,0-.08,0-.1.15-.33.18-.23,0,0,0-.19-.31-.49-.45,0H206l-.06,0-.08,0-.12-.07-.05-.1-.12-.12-.06,0-.06,0h0l-.51.1-.41,0-.44-.06,0,0,0-.1,0-.2,0-.11.08-.23,0-.12,0-.1-.16-.35,0-.15,0-.16.06-.07.06,0,.33-.1.09,0,0,0,0,0,.14-.17,0,0,.09-.06.2-.09.07-.06.06-.08,0,0,0,0,.06-.23v-.14l-.06-.11-.14-.14-.33-.23-.17-.1-.14,0-.52-.05-.11,0-.41-.16-.06,0-.06,0h-.13l-.12,0-.08,0,0,0,0-.06-.08-.14,0-.07,0-.08,0-.2v-.13l0-.21.06-.16.27-.27-.2-2.09v-.51l0-.07,0,0,0-.12-.09-.33-.47-1.12-.06-.33-.08-.21v-.33l0-.1.24-.45v-.05l0-.06v-.06l0-.06,0-.06,0-.06-.06-.15,0-.1,0-.07,0-.06,0-.1.1-.1.42-.31.31-.19.37-.35.81-.62.22-.1.27-.07,1.06-.08,1.57.12.12,0,.06,0,0-.06v-.08l0-.15-.14-.26,0-.11,0-.06V273l0-.75,0-.1,0-.06,0,0,0,0,0,0-.06,0h-.19l-.06,0-.41.16h-.07l-.06,0,0,0-.06,0,0,0-.06-.08,0-.05v-.06l0-.49,0-.13,0-.12,0-.11-.18-.39-.07-.21-.06-.24V270l0-.18,0-.19v-.08l0-.11-.06-.16,0-.08V269l0-.14,0-.15.08-.16.13-.15.16-.14.44-.35.12,0H207l.74.08.21,0,.51-.27,6.7-1,0,0,.25.25.12.1.21.23.23.18.78.42.07.06.29.33.12.21,0,.1.06.39.06.1.05.07.93.95.06.08,0,.06,0,.11.06.28,0,.27,0,.13,0,.12v0l0,.06.08,0,.54.41.1.06.45.06H220l1.73.38.13.08,0,0,.08.08.13.1.31.19.08.06,0,0,0,0,0,.05v0l0,.06v.14l0,.11v.18l0,0v0l.06.1,0,.1,0,.06,0,0v0l.06,0,.06.08,0,0,0,.1,0,0,0,0v0l0,0,.06.06.06.06,0,.07.05.2,1.34.77.35.16h.06l.1,0,0,0,0,0,.08-.08.12,0,.77,0,.41.14.19.19.1.18.06.11,0,.1.07.31.12,1.43,0,.14v0l0,0,.07.11,3.59,3.65,1.3.95.23.25.45.58v0Z" /><path id="SYDR" class="cls-15" d="M189.3,279l.2-.29,1.39-1.3.8-.64.13-.19,0-.06v-.14l-.08-.62,0-.19,0-.12-.06-.08,0,0,0-.06,0-.08,0-.08.1-.09.09,0,.08,0,.47,0,.13,0,0,0,0,0,0,.05,0,0,0,.12,0,.06,0,0,0,0,.06,0,0,0,0,0,.06,0h0l0,0,0-.06v-.11l0-.18-.18-.56,0-.11-.11-.12-.12-.18-.14-.29v0l-.31-.46-.13-.29,0-.25.33-2,0,0,.17-.4.33-.55v-.07l0-.14-.13-.23-.08-.12-.06-.06-.37-.29,0,0,0-.33.22-1.2.58.24.06.05.11.1.16.29.09.12.18.06h.5l.16,0,.15-.06.1,0,.17-.14.39-.35h0l2.11-.18.1,0,.4-.21,1.11-.37.25-.12.1-.25.15-.29,0-.09,0-.12v-.06l0-.08,0-.11-.1-.35,0-.1,0-.15.12-.29.07-.1.08-.06.06,0,0,0,0,0,0,0,.21.37.14.17.05.06.06,0,.27.13,0,0,0,0,0,0,0,.06,0,0,0,.32v.06l0,.06v0l0,0,0,0,.06,0,.08,0,.48.05.12,0,0,0,.07.08,0,0,0,0,.1.25,0,0,0,0,.27.17.08.08.05.08.12.05.7.2.19,0h.16l0,0,.07,0,0,0,0-.06,0,0v-.08l0-.32v-.06l0-.06.1-.14.79-.73.1-.06h0v0l1.29-.81.1-.08.14-.2.44-.31h.2l.09.08.06.06,0,.06,0,.1,0,.09.11.39.06.1,0,.09.91,1,0,.06,0,.09,0,.06,0,.06v.06l0,.5.06.33L208,268l-.21,0-.74-.08h-.17l-.12,0-.44.35-.16.14-.13.15-.08.16,0,.15,0,.14v.15l0,.08.06.16,0,.11v.08l0,.19,0,.18v.17l.06.24.07.21.18.39,0,.11,0,.12,0,.13,0,.49v.06l0,.05.06.08,0,0,.06,0,0,0,.06,0h.07L207,272l.06,0h.19l.06,0,0,0,0,0,0,0,0,.06,0,.1,0,.75V273l0,.06,0,.11.14.26,0,.15v.08l0,.06-.06,0-.12,0-1.57-.12-1.06.08-.27.07-.22.1-.81.62-.37.35-.31.19-.42.31-.1.1,0,.1,0,.06,0,.07,0,.1.06.15,0,.06,0,.06,0,.06v.06l0,.06v.05l-.24.45,0,.1v.33l.08.21.06.33.47,1.12.09.33,0,.12,0,0,0,.07v.51l.2,2.09-.27.27-.06.16,0,.21v.13l0,.2,0,.08,0,.07.08.14,0,.06,0,0,.08,0,.12,0h.13l.06,0,.06,0,.41.16.11,0,.52.05.14,0,.17.1.33.23.14.14.06.11v.14l-.06.23,0,0,0,0-.06.08-.07.06-.2.09-.09.06,0,0-.14.17,0,0,0,0-.09,0-.33.1-.06,0-.06.07,0,.16,0,.15.16.35,0,.1,0,.12-.08.23,0,.11,0,.2,0,.1,0,0,.44.06.41,0,.51-.1h0l.06,0,.06,0,.12.12.05.1.12.07.08,0,.06,0H206l.45,0,.31.49,0,.19,0,0-.18.23-.15.33,0,.1,0,.08.14.19.34.43.28.4.05.16,0,.09,0,.28,0,.11-.19.62,0,.14.08,1.51,0,.08-.1.89V294l-.95-.12-.44-.27-1.5-.13-.52-.18-.39-.21-2.32-2.21-1.71-1.18-.85-.87-.29-.16-.13,0-.31.27-.14.06-.16,0-.27-.11-.17,0-1,.13h-.39l-.31,0-.09,0v-.13l-.16-.37-1.18-1.82-.25-.52,0-.59.08-.54-.14-.37-.62,0-.37.08-.29-.09-.23-.24-.23-.29.09,0,.08-.13,0-.22,0-.19-.1-.06h-.34l-.12,0-.47-.46-.25-.16-2.85-.66-.23-.31v0l-.11-.07-.14,0,.56-.84.45-.27.19-.11.18-.29.56-.82.13-.27,0-.17Z" /><path id="SYDY" class="cls-16" d="M303.83,239.76v0l-14.92-21.5L284.55,212l-.12-.19-.11-.29,0-.35.17-1.86,0-.31-.1-.29-1.66-3.59-.84-1.06-2.67-2.17,11.24-16.53.21-.44-.21-.1-.76-.52-.19-.06v-.35l.29-2L292.34,170l1.72-7.75.58,1.28,2,3.29,3.31,3.39,19.82,19.45.85.51.49.21,1.64.37.95.35,2,.42,5.21.12,3,.43-1.24,1.87v0l-.25,1-.23,3.18-1.1,4-.26,2,0,.75.14,5.33.23,5.64-.06.85-.23.8-4.53,8.81-1,2.11-.6.86-.78.5-6.49,1.76-3.87,2.35-2.95,1.78-2.92,1.76-2.93,1.78-1,.62Z" /><path id="SYQU" class="cls-17" d="M189.21,263.61l1.1.58.27.18v.06l0,.06-.13.15-.1.17,0,.06,0,.08,0,.19,0,.18v.27l0,.06v.11l.18.37.06.08.06,0v0l0,0,0-.11,0-.12v0l0,0,0,0,0,0,0,0,.09,0,.06,0H191l.6.11.31,0,.35,0,.1.06,0,.06,0,.06v.21l0,.25,0,.48,0,.16,0,.21-.22,1.2,0,.33,0,0,.37.29.06.06.08.12.13.23,0,.14v.07l-.33.55-.17.4,0,0-.33,2,0,.25.13.29.31.46v0l.14.29.12.18.11.12,0,.11.18.56,0,.18v.11l0,.06,0,0h0l-.06,0,0,0,0,0-.06,0,0,0,0,0,0-.06,0-.12,0,0,0-.05,0,0,0,0-.13,0-.47,0-.08,0-.09,0-.1.09,0,.08,0,.08,0,.06,0,0,.06.08,0,.12,0,.19.08.62v.14l0,.06-.13.19-.8.64-1.39,1.3-.2.29v0l.37-1.38.8-1.53.56-.58.31-.66-.68-.56-.54-.21-.35-2.81.12-.82.58-.07h.33v-.22h-.16l-.1-.13,0-.12.07-.12.14-.07.15-.08.12-.08,0-.11v-.86l-.1-.17,0-.18-.15-.09-.1,0-.15.11h-.06l-.1-.05-.06-.18v-.15l.18-.18v-.11l-.1-.18L190,267l-.21-.33-.14-.36-.17-1,0-.12-.08-.09-.14-.12H189l-.25,0-.15,0,0-.12.06-.05.11-.08.2-.08.17-.13.14-.28v-.31l-.05-.27,0,0Z" /><path id="SYHM" class="cls-18" d="M254.29,197.57l0,.56-.07,3.62-.14.52-.27.68-.25.47-.66,1-.1.21-.11.35-.08.27,0,.27v.27l.14,1.09-.08.15-.2.18L249,208.73l-.45.33-.72.67-.11.14V210l0,.27,0,.06,0,.05,0,0-.15.22,0,0-.14.31-.13.26,0,0,0,.06v.06l0,.27v.14l0,.13,0,.06,0,.06,0,.06,0,0,0,.09,0,.06,0,.12,0,.09,0,.06-.49.55-.06,0-.19.08-.08,0-.08,0-.15-.13-1-1.34-.23-.35-.17-.19-1.5-1.24,0,0-.08-.06-.23-.21-.1-.14,0,0,0-.06-.1-.42,0-.35,0-.18-.12-.46,0,0,0,0-.13-.15,0,0,0-.06,0-.1,0-.06-.06-.11-.08-.14-.11-.15,0,0-.1-.06,0,0-.11,0-.55,0-.13,0-.1,0-.11,0-.08-.06,0,0-.31-.37-.16-.13-.17-.12-.06,0-.08,0h-.11l-2.19.52-1.22.45-.37.08h-.35l-.15,0-.18.09-.81.58-.52.28-.18.13-.12.12,0,0,0,0-.1.22,0,.11-.06.45v.83l0,.14.14.39,0,.11v.14l0,.06,0,.05,0,.08,0,0,0,0,0,0-.07,0h-.1l-.21,0-.12,0-.06,0-.1-.13-.23-.41,0,0-.06,0-.09,0-.14,0-.31,0-.19,0h-.16l-.35.06h-.15l-.1,0-.11.06-.24.17-.17.06-.19.06-.22,0-.21-.06-.27-.19,0,0-.06,0-.08,0-.09.06-.14.17,0,.12,0,.1v.13l0,0-.08,0-.43-.12h-.27l-.08,0-.06,0-.09.06-.06.12,0,.07-.06.27,0,0,0,0-.19.2,0,0,0,0,0,.06-.09.41,0,.11,0,0,0,.06-.14.16-.17.11-.08,0h-.09l-.33-.08-.22-.11-.09-.06,0,0-.06-.08-.1-.19-.11-.27,0,0,0,0-.08-.08-.08-.05-.09-.06-.12,0h-.19l-.16.06-.62.4-.15.16-.1.12,0,.17,0,.06h-.06l-.21-.12-.21-.08,0,0-.08,0-.15-.1,0,0-.06,0h-.19l-.08,0-.1.08-.29.38-.08,0-.13,0-.45,0-.23.08-.17.11-1.32,1.07-.16.08-.54.19-.66-1.47-.81-1.61,0-.06-.14-.17-.38-.33-.35-.12-.27,0-.16,0-.17.06-.39.27-.12,0-.11,0h-.26l-.17,0-.15.08-.35.33-.1,0-.83.05-.1,0h-.25l-.23.06h-.18l0,0-.25.1-2.07,1.07-1.3-.06-.6.15-.31.2-.12,0-.06,0-.11,0h-.16l-.25-.12-.08-.08,0-.08v-.21l0-.06,0,0-.06,0,0,0-.06,0h-.06l-.19,0,0,0,0,0,0-.06v-.06l0-.05,0-.06.1-.12.06-.1,0,0,0-.06v-.06l0-.06,0-.06,0,0,0,0-.1-.06-.09,0h-.2l-.23.06-.06,0,0,0,0,0-.21.29-.21.34-.66.72v.27l0,.2,0,.09,0,.1-.16.17,0,.12,0,.1v.33l0,.07-.21.24-.06.07-.14.06-.1,0-.79-.19-.19-.31-.08-.06-.1-.06-.19,0H203l-.08,0,0,.08-.31.42-.08.08,0,0-.06,0-.11-.08-.12-.13-.23-.37-.12-.12-.08-.08h-.11l-.06,0,0-.06,0-.08.17-.21,0-.06.08,0,0-.1-.17-.31-.1-.21-.12-.15-.68-.49-.11-.1,0-.09-.08-.22-.11-.44-.16-.39-.15-.08-.24-.05-1,.09-.43,0-1.24-.25-.19-.85.29-.18h.25l.25.05h.12l.09,0,.1,0,.16-.14.09,0,.12,0,.23,0,.12,0,.15-.14.12,0,.37,0,.09-.06.18-.21.09-.08.2-.13.08-.12.09-.19.22-.74v-.5l-.31-3.82,0-.62-.06-1.26-.7-3.27-.43-1.26-.17-.62,0-.14.52-3.58.1-2.17-.08-1-.05-.37-.08-.21-.1-.19-.31-.43,0-.1,0-.13.08-.18.25-.27.41-.29.08-.14,0-.21.06-.81.12-.29.42-.37.12.21.06.08.12.1.09.05.22.08.19,0,.35,0,.31-.09.09-.06.1,0,.12,0H202l.1.06.1.08.15.17.08.16,0,.13,0,.1,0,.11.06.1.34.12,1.17,0,.19.11,0,.41-.18,1.43-.36,1.77-.06.58.23,2.19-.06.17-.06.14,0,.07,0,.1v0l.58,1.3.13.56.18.19.56.18.93-.47.12,0,.17.08.47.23.09.06.06.08.1.19.08.22,0,.09.06.1.06.08.1.06.09,0,.14,0,.27,0,.5,0,.26,0,1.78.51,1.35,0,3.2-.87h.23l.12,0,.1,0,.79.72.1.19,0,.1.11.19.08.08.08.06.29.19.06.08.06.08.05.09.12,0h.15l.28-.06.19,0,.17,0,.16-.12.46-.72.59-.56.09-.12.22-.4.07-.1.08,0,.14,0,.09.06.06.08.06.09,0,.1,0,.12,0,.11,0,.25v.14l0,.12,0,.13-.25.54,0,.12v.25l.09.47,0,.11v.41l0,.1.06.09.08.08.09.06.12,0,.12,0h.25l.6-.08.54,0,.14,0,.15-.06.12-.06.08-.07.23-.37.13-.2.1-.07.08-.06.1,0,.11,0,.12,0,.11,0,.1,0h.1l0-.1,0-1.35,0-.24,0-.11,0-.08-.08-.08-.09-.06-.1,0-.12,0-.08.06-.05.08-.08.08-.16.33-.05.07-.08.08-.1.06-.1,0h-.13l-.12,0-.11,0-.08-.06-.08-.08,0-.11v-.12l0-.13.06-.24.52-1.1.14-.25.15-.16.33-.21.57-.23.17-.12.15-.21.66-1.16.29-.68.08-.16.08-.09.48-.3,2.27.8,1,.64.23.11.2.06,1.53,0,4.36-.31.5.35,0,0,1.74,1.22.45.21,1.2.35,2.23.33,11.29,0,1,.8.31.33.41.62Z" /><path id="SYDI" class="cls-19" d="M201.74,259.24l-.5-.08-1.61-.82-.6.39-.14-.31.57-.6-.62-.31-.43.06-.19-.58,1-.56.8,0,1.47-.43.74.06.42.58,0,.35.06.58-.25.7-.6.62-.1.39Z" /></g><path d="M101.77,444.94a26.61,26.61,0,0,1-9.69-1.8A25.23,25.23,0,0,1,83.84,438a24.31,24.31,0,0,1-5.69-8.21,29.31,29.31,0,0,1,0-21.74,24.51,24.51,0,0,1,5.69-8.21,25.37,25.37,0,0,1,8.24-5.18,27.14,27.14,0,0,1,19.44,0,25.31,25.31,0,0,1,8.25,5.18,24.65,24.65,0,0,1,5.69,8.21,29.44,29.44,0,0,1,0,21.74,24.45,24.45,0,0,1-5.69,8.21,25.17,25.17,0,0,1-8.25,5.19A26.7,26.7,0,0,1,101.77,444.94Zm0-8.36a16.89,16.89,0,0,0,7.77-1.9,15,15,0,0,0,6.12-5.87,22.09,22.09,0,0,0,0-19.95,15.08,15.08,0,0,0-6.12-5.86,16.64,16.64,0,0,0-15.48,0,15.2,15.2,0,0,0-6.12,5.86,22.18,22.18,0,0,0,0,19.95,15.16,15.16,0,0,0,6.12,5.87A16.83,16.83,0,0,0,101.77,436.58Z" /><path d="M133.74,459.91V408.36h9.14v5A13.48,13.48,0,0,1,148.1,409a15.83,15.83,0,0,1,6.8-1.47,15.47,15.47,0,0,1,8.9,2.52,16.38,16.38,0,0,1,5.68,6.73,21.66,21.66,0,0,1,2,9.32,22.07,22.07,0,0,1-2,9.43,16.76,16.76,0,0,1-5.73,6.88,15.18,15.18,0,0,1-8.82,2.56,13.91,13.91,0,0,1-7.52-1.88,15.35,15.35,0,0,1-4.43-3.88v20.73Zm18.72-23a8.74,8.74,0,0,0,5-1.47,10.26,10.26,0,0,0,3.38-3.93,11.84,11.84,0,0,0,1.22-5.4,11.39,11.39,0,0,0-1.33-5.72,9.18,9.18,0,0,0-3.53-3.57,9.71,9.71,0,0,0-4.78-1.22,9,9,0,0,0-4.9,1.37,9.64,9.64,0,0,0-3.42,3.78,11.72,11.72,0,0,0-1.26,5.51,12,12,0,0,0,1.22,5.4,9.69,9.69,0,0,0,3.39,3.85A9,9,0,0,0,152.46,436.87Z" /><path d="M193.86,444.94a18.45,18.45,0,0,1-9.69-2.45,16.74,16.74,0,0,1-6.3-6.7,22,22,0,0,1,.07-19.44,16.65,16.65,0,0,1,6.41-6.51,18.89,18.89,0,0,1,9.51-2.34,18.38,18.38,0,0,1,9.32,2.3,16.58,16.58,0,0,1,6.26,6.34,18.52,18.52,0,0,1,2.27,9.28c0,.63,0,1.24-.07,1.84a16.16,16.16,0,0,1-.22,1.69H184.93a10.28,10.28,0,0,0,1.33,4.43,7.71,7.71,0,0,0,3,2.95,8.9,8.9,0,0,0,4.36,1.05A8.47,8.47,0,0,0,198,436.3a7.51,7.51,0,0,0,2.91-3.32h9.87a18.16,18.16,0,0,1-3.24,5.91,16.43,16.43,0,0,1-5.66,4.39A18.26,18.26,0,0,1,193.86,444.94ZM185,422.83h17.21a7.19,7.19,0,0,0-2.63-5.69,9.21,9.21,0,0,0-6-2.08,9.11,9.11,0,0,0-5.47,1.83A8.4,8.4,0,0,0,185,422.83Z" /><path d="M216.61,444.07V408.36h9.14v4.18a11.4,11.4,0,0,1,5-3.78,16.79,16.79,0,0,1,6.31-1.26,13.7,13.7,0,0,1,10.15,4q4,4,4,11.56v21H242v-19.8a9.88,9.88,0,0,0-2.05-6.51,7.34,7.34,0,0,0-6-2.49,7.54,7.54,0,0,0-6.08,2.49,9.65,9.65,0,0,0-2.13,6.51v19.8Z" /><path class="cls-20" d="M280.7,444.94a24.43,24.43,0,0,1-9.54-1.8,15.46,15.46,0,0,1-6.8-5.37,15.81,15.81,0,0,1-2.67-8.89h9.73a8.41,8.41,0,0,0,2.55,5.9,10.59,10.59,0,0,0,12.49.65,5.67,5.67,0,0,0,2.16-4.68,6.87,6.87,0,0,0-.47-2.66,5.35,5.35,0,0,0-1.76-2.16,16.13,16.13,0,0,0-3.64-2q-2.34-1-6.15-2.2a30.08,30.08,0,0,1-8-3.81,13.3,13.3,0,0,1-4.36-4.86,13.07,13.07,0,0,1-1.33-5.87,13.39,13.39,0,0,1,2.27-8,13.93,13.93,0,0,1,6.12-4.82,23.25,23.25,0,0,1,17.13,0,14.84,14.84,0,0,1,6.23,4.9,13.56,13.56,0,0,1,2.45,8h-9.87a6.66,6.66,0,0,0-2.12-4.75,7.73,7.73,0,0,0-5.65-2,7.94,7.94,0,0,0-4.9,1.52,5.22,5.22,0,0,0-2,4.46,4.82,4.82,0,0,0,1.62,3.67,14,14,0,0,0,4.39,2.63q2.78,1.13,6.15,2.34c1.25.43,2.66,1,4.22,1.66a20.2,20.2,0,0,1,4.5,2.7,13.56,13.56,0,0,1,3.56,4.25,12.86,12.86,0,0,1,1.41,6.29,13.41,13.41,0,0,1-2.34,7.92,15.32,15.32,0,0,1-6.34,5.12A21.78,21.78,0,0,1,280.7,444.94Z" /><path class="cls-20" d="M307.85,459.91l7.84-17.49-14.47-34.06h10.3l9.21,24.34,9.44-24.34h9.72l-22.32,51.55Z" /><path class="cls-20" d="M343.05,444.07V408.36h9.15v5.33a12.85,12.85,0,0,1,4.75-4.61,13.12,13.12,0,0,1,6.41-1.58v9.64h-2.45q-4.4,0-6.55,2.09c-1.44,1.4-2.16,3.72-2.16,7v17.85Z" /><path class="cls-20" d="M372.64,403.75a6,6,0,0,1-4.21-10.22,6,6,0,0,1,8.46,8.46A5.7,5.7,0,0,1,372.64,403.75ZM368,444.07V408.36h9.21v35.71Z" /><path class="cls-20" d="M395,444.94a13.65,13.65,0,0,1-5.9-1.3,11.12,11.12,0,0,1-4.43-3.71,9.68,9.68,0,0,1-1.69-5.72,10.34,10.34,0,0,1,1.94-6.48,11.52,11.52,0,0,1,5.37-3.75,22.77,22.77,0,0,1,7.67-1.22h8.49a9.91,9.91,0,0,0-.75-4.1,5.66,5.66,0,0,0-2.24-2.56,6.83,6.83,0,0,0-3.63-.9,8.94,8.94,0,0,0-4.5,1.12,4.88,4.88,0,0,0-2.41,3.7h-9.22a12.07,12.07,0,0,1,2.66-6.69,15.08,15.08,0,0,1,5.91-4.32,19.66,19.66,0,0,1,7.7-1.51,17.81,17.81,0,0,1,8.53,1.87,13,13,0,0,1,5.37,5.29,16.6,16.6,0,0,1,1.87,8.1v10.87a2.56,2.56,0,0,0,1.15,2.16,5.29,5.29,0,0,0,2.67.58v7.7a20.68,20.68,0,0,1-5.66-.65,9.45,9.45,0,0,1-3.7-1.9,10.75,10.75,0,0,1-2.45-3.21,13,13,0,0,1-5.15,4.72A15.62,15.62,0,0,1,395,444.94Zm2.67-7.42a8.94,8.94,0,0,0,4.35-1.08,8.69,8.69,0,0,0,3.21-3,8.28,8.28,0,0,0,1.22-4.47v-.29h-7.92a9.78,9.78,0,0,0-3,.47,5.22,5.22,0,0,0-2.31,1.44,3.86,3.86,0,0,0-.86,2.63,3.69,3.69,0,0,0,1.55,3.28A6.64,6.64,0,0,0,397.63,437.52Z" /></svg>
